<?xml version="1.0" encoding="utf-8"?>
<!-- Generator: Adobe Illustrator 23.0.1, SVG Export Plug-In . SVG Version: 6.00 Build 0)  -->
<svg version="1.1" id="_x35_0-atlas-concorde-solution-negative"
	 xmlns="http://www.w3.org/2000/svg" xmlns:xlink="http://www.w3.org/1999/xlink" x="0px" y="0px" viewBox="0 0 282 50"
	 style="enable-background:new 0 0 282 50;" xml:space="preserve">
<style type="text/css">
	.st0{fill:#FAA61A;}
	.st1{fill:#FFFFFF;}
	.st2{fill:#C31F3D;}
</style>
<g id="atlas-concorde-solution-negative">
	<g>
		<g>
			<path class="st0" d="M197.6,43.8c1.1,0.6,2.4,0.9,3.6,0.9c1.8,0,2.9-0.8,2.9-1.8c0-1.1-1.1-1.7-3.2-1.7c-1.4,0-2-0.1-2-0.7
				c0-0.4,0.6-0.8,1.7-0.8c0.8,0,1.8,0.2,2.7,0.7l0.5-0.7c-1-0.5-2-0.8-3.2-0.8c-1.7,0-2.7,0.6-2.7,1.5c0,1.1,1.1,1.4,3.1,1.4
				c1.4,0,2,0.3,2,0.9c0,0.6-0.7,1-2,1c-0.9,0-2.1-0.3-3-0.8L197.6,43.8z M213.1,44.7c2.4,0,4-1.3,4-2.9c0-1.6-1.6-2.8-4-2.8
				s-4,1.2-4,2.8C209.1,43.4,210.6,44.7,213.1,44.7 M213.1,43.9c-1.8,0-3-0.9-3-2.1s1.2-2.1,3-2.1s3,0.9,3,2.1
				C215.9,43,214.8,43.9,213.1,43.9 M222.3,44.5h5.9v-0.8h-4.9v-4.6h-1V44.5L222.3,44.5z M233.1,39.1v3.7c0,1.3,0.9,1.9,3.2,1.9
				s3.3-0.5,3.3-1.9v-3.7h-1v3.4c0,1.1-0.5,1.3-2.2,1.3s-2.2-0.3-2.2-1.3v-3.4H233.1z M247.1,44.5h1v-4.6h2.8v-0.7h-6.6v0.7h2.8
				V44.5L247.1,44.5z M255.6,44.5h1v-5.4h-1V44.5z M266,44.7c2.4,0,4-1.3,4-2.9c0-1.6-1.6-2.8-4-2.8s-4,1.2-4,2.8
				C262,43.4,263.6,44.7,266,44.7 M266,43.9c-1.8,0-3-0.9-3-2.1c0-1.2,1.2-2.1,3-2.1s3,0.9,3,2.1S267.8,43.9,266,43.9 M275.4,44.5h1
				v-3.8l4.2,3.8h0.5v-5.4h-1v3.8l-4.2-3.8h-0.5V44.5L275.4,44.5z"/>
		</g>
		<rect x="130.1" y="12.2" class="st1" width="4.1" height="20.5"/>
		<g>
			<path class="st1" d="M125.5,28.5c-0.9-0.6-0.9-1.8-0.9-1.8v-4.8h2.9v-4h-2.8v-5.7h-4v14.7c0.1,3.3,2.8,6,6.1,6c0.3,0,0.5,0,0.8,0
				v-4.2C127.7,28.6,126.4,29.1,125.5,28.5"/>
			<path class="st1" d="M110.9,28.8c-2,0-3.7-1.7-3.7-3.7s1.7-3.7,3.7-3.7s3.7,1.7,3.7,3.7S112.9,28.8,110.9,28.8 M110.9,17.5
				c-4.2,0-7.6,3.4-7.6,7.6s3.3,7.5,7.5,7.5c1.3,0,2.5-0.3,3.6-1.2v1.2h4V25C118.5,20.9,115.2,17.5,110.9,17.5"/>
			<path class="st1" d="M188.4,28.6c-2,0-3.6-1.6-3.6-3.6s1.6-3.6,3.6-3.6S192,23,192,25S190.4,28.6,188.4,28.6 M188.4,17.4
				c-4.2,0-7.6,3.4-7.6,7.6s3.4,7.6,7.6,7.6s7.6-3.4,7.6-7.6S192.6,17.4,188.4,17.4"/>
			<path class="st1" d="M256.5,28.8c-2,0-3.7-1.7-3.7-3.7s1.7-3.7,3.7-3.7s3.7,1.7,3.7,3.7S258.5,28.8,256.5,28.8 M260.1,18.5
				c-1.1-0.9-2.2-1-3.6-1c-4.2,0-7.5,3.4-7.5,7.5c0,4.2,3.4,7.6,7.6,7.6s7.6-3.4,7.6-7.5v-13h-4L260.1,18.5L260.1,18.5z"/>
			<path class="st1" d="M240.9,23.5v9.1h4v-9.1c0.2-1.2,1.2-2.1,2.4-2.1c0.2,0,0.5-0.1,0.6,0v-3.9c-0.2,0-0.4,0-0.6,0
				C243.9,17.5,241.1,20.1,240.9,23.5"/>
			<path class="st1" d="M269.4,23.4C270,22,271.5,21,273,21c1.7,0,3.1,1,3.7,2.4H269.4z M280.8,25.1c0-4.2-3.4-7.7-7.7-7.7
				c-4.2,0-7.7,3.4-7.7,7.7c0,4.2,3.4,7.7,7.7,7.7c3.3,0,6-2.1,7.2-4.9h-4.1c-0.7,0.8-1.9,1.3-3,1.3c-1.7,0-3.1-1-3.7-2.5h11.3v0.1
				C280.6,26.2,280.8,25.6,280.8,25.1"/>
			<path class="st1" d="M231.6,28.6c-2,0-3.6-1.6-3.6-3.6s1.6-3.6,3.6-3.6s3.6,1.6,3.6,3.6C235.1,27,233.6,28.6,231.6,28.6
				 M231.6,17.4c-4.2,0-7.6,3.4-7.6,7.6s3.4,7.6,7.6,7.6c4.2,0,7.6-3.4,7.6-7.6C239.1,20.8,235.8,17.4,231.6,17.4"/>
			<path class="st1" d="M204.3,17.5c-3.4,0-6.2,2.7-6.4,6v9.1h4v-9.1c0.2-1.2,1.2-2.1,2.4-2.1s2.2,0.9,2.4,2v9.1h4v-9.1
				C210.6,20.1,207.8,17.5,204.3,17.5"/>
			<path class="st1" d="M159.4,23.1c-2.9-1-1.9-2.9-0.3-2.7c1,0.1,1.4,1.3,1.4,1.3l3.3-1.3c-0.7-1.9-2.7-3.1-5.1-3.1
				c-3,0-5.4,2.1-5.4,4.7c0,1.3,0.3,2.7,2.4,3.7c2.1,1,4.5,1.1,4.4,2.8c-0.2,1.5-2.1,1.1-2.5,1c-1.3-0.5-1.5-1.7-1.5-1.7l-3.2,1.2
				c0.9,2.8,3.5,3.8,5.8,3.8c3,0,5.4-2.1,5.4-4.7c0-1.3-0.6-2.5-1.5-3.4C162.8,24.7,162.2,24.1,159.4,23.1"/>
			<path class="st1" d="M219.9,21.4c0.6,0,1.2,0.2,1.7,0.4l2-3.5c-1.1-0.6-2.4-1-3.7-1c-4.2,0-7.6,3.4-7.6,7.6s3.4,7.6,7.6,7.6
				c1.3,0,2.5-0.3,3.5-0.9l-1.8-3.6c-0.5,0.3-1.1,0.4-1.7,0.4c-2,0-3.6-1.6-3.6-3.6C216.3,23,217.9,21.4,219.9,21.4"/>
			<path class="st1" d="M176.8,21.4c0.6,0,1.2,0.2,1.7,0.4l2-3.5c-1.1-0.6-2.4-1-3.7-1c-4.2,0-7.6,3.4-7.6,7.6s3.4,7.6,7.6,7.6
				c1.3,0,2.5-0.3,3.5-0.9l-1.9-3.6c-0.5,0.3-1.1,0.4-1.7,0.4c-2,0-3.6-1.6-3.6-3.6C173.1,23,174.8,21.4,176.8,21.4"/>
			<path class="st1" d="M143.8,28.8c-2,0-3.7-1.7-3.7-3.7s1.7-3.7,3.7-3.7s3.7,1.7,3.7,3.7S145.9,28.8,143.8,28.8 M143.8,17.5
				c-4.2,0-7.6,3.4-7.6,7.6s3.3,7.5,7.5,7.5c1.3,0,2.5-0.3,3.6-1.2v1.2h4V25C151.4,20.9,147.9,17.5,143.8,17.5"/>
		</g>
		<polygon class="st2" points="85.6,12.4 72.8,24.9 85.4,37.6 98.2,24.9 		"/>
		<g>
			<path class="st1" d="M91.8,22.3c0.3,0.8,0.5,1.7,0.5,2.6c0,3.7-3,6.8-6.8,6.8s-6.8-3-6.8-6.8c0-0.9,0.2-1.8,0.5-2.6
				c-0.1,0.5-0.2,1-0.2,1.5c0,1.2,0.3,2.3,0.9,3.3c-0.6-2-0.9-4.3,1.2-6.4c1-0.9,1.6-2,1.6-2s-0.1,1-1,2.2s-2,3.3-0.2,6.6
				c0,0-1.2-3.2,0.5-5.6c1.6-2.3,1.4-3.4,1.4-3.4s0.8,1.4-0.3,3.3c-1.1,1.9-1.3,4.4,0.1,6.7c0,0-1.3-2.9,0-5.2c1.6-3.1,0.9-5,0.9-5
				s1.6,1.6,0.2,5C83,26.6,84.9,29,84.9,29s-1.2-2.8-0.1-5.5c1.4-3.3,0.2-5.4,0.2-5.4s2,2,1.1,4.9c-0.8,2.7-0.7,3.8-0.3,5.2
				c0,0-0.3-1.7,0.9-5c1.1-2.9-0.9-5.1-0.9-5.1s2.4,1.3,2.1,4.4c-0.1,1.1-0.9,2.5-0.7,4.2c0.4-2.3,1.1-2.7,1.4-4.3
				c0.3-2.1-1.4-4.1-1.4-4.1c1.7,0.9,3.1,3.5,2.2,5.9c-0.9,2.5-0.9,4-0.9,4c0.7-2.6,1.2-2.7,1.5-4.3c0.6-2.6-1-4.8-1-4.8
				c3.6,3.4,1.5,7.9,1.5,7.9c1-1.1,1.3-2.6,1.1-4.1C91.8,22.8,91.8,22.6,91.8,22.3"/>
		</g>
	</g>
</g>
<g id="_x35_0">
	<polygon class="st1" points="20.7,14 19.7,12.5 20,12.5 20.8,13.8 21.6,12.5 21.9,12.5 21,14 21,15.1 20.7,15.1 	"/>
	<polygon class="st1" points="24.4,12.5 26.1,12.5 26.1,12.7 24.6,12.7 24.6,13.6 25.9,13.6 25.9,13.9 24.6,13.9 24.6,14.9 
		26.1,14.9 26.1,15.1 24.4,15.1 	"/>
	<path class="st1" d="M30.1,14.1l-0.5-1.3l-0.5,1.3H30.1z M29.7,12.5l1,2.6h-0.3l-0.3-0.8H29l-0.3,0.8h-0.3l1-2.6H29.7z"/>
	<path class="st1" d="M33.4,13.7h0.8c0.5,0,0.6-0.3,0.6-0.5c0-0.3-0.2-0.5-0.6-0.5h-0.8V13.7z M33.1,12.5h1.1c0.5,0,0.7,0.4,0.7,0.7
		c0,0.4-0.3,0.7-0.8,0.7l0.8,1.2h-0.3L34,13.9h-0.6V15h-0.2v-2.5H33.1z"/>
	<path class="st1" d="M37.7,14.3c0,0.4,0.3,0.6,0.7,0.6s0.7-0.2,0.7-0.5c0-0.8-1.5-0.3-1.5-1.3c0-0.5,0.5-0.7,0.8-0.7
		c0.4,0,0.8,0.1,0.9,0.6l-0.2,0.1c-0.1-0.3-0.4-0.5-0.7-0.5s-0.6,0.1-0.6,0.4c0,0.8,1.5,0.3,1.5,1.3c0,0.5-0.4,0.8-0.9,0.8
		s-0.9-0.2-1-0.7L37.7,14.3z"/>
	<path class="st1" d="M17.6,31.8h-2.7c0-5.1-4.1-9.2-9.2-9.2H0.6V12.4h15.7v2.7h-13v4.7h2.4C12.3,19.9,17.6,25.2,17.6,31.8"/>
	<path class="st1" d="M41.5,31.8h-2.7c0-5.1-4.1-9.2-9.2-9.2s-9.2,4.1-9.2,9.2h-2.7c0-6.6,5.4-11.9,11.9-11.9S41.5,25.2,41.5,31.8"
		/>
	<polygon class="st1" points="15.6,35.2 15.8,35.2 15.8,37.8 15.6,37.8 15.6,35.4 15,35.6 14.9,35.5 	"/>
	<path class="st1" d="M17.5,36c0,0.2,0.1,0.3,0.2,0.5c0.1,0.1,0.3,0.2,0.5,0.2s0.4-0.1,0.5-0.2s0.2-0.3,0.2-0.5s-0.1-0.3-0.2-0.5
		c-0.1-0.1-0.3-0.2-0.5-0.2s-0.4,0.1-0.5,0.2C17.5,35.7,17.5,35.8,17.5,36 M19,36c0,0.2-0.1,0.4-0.2,0.5L18,37.8h-0.2l0.6-0.9
		c-0.1,0-0.2,0-0.3,0c-0.2,0-0.5-0.1-0.6-0.2c-0.2-0.2-0.2-0.4-0.2-0.6c0-0.2,0.1-0.4,0.2-0.6c0.2-0.2,0.4-0.2,0.6-0.2
		s0.5,0.1,0.6,0.2C18.9,35.6,19,35.8,19,36"/>
	<path class="st1" d="M20.7,37.4c0.1,0.1,0.3,0.2,0.5,0.2s0.4-0.1,0.5-0.2c0.1-0.1,0.2-0.3,0.2-0.5s-0.1-0.3-0.2-0.5
		c-0.1-0.1-0.3-0.2-0.5-0.2s-0.4,0.1-0.5,0.2c-0.1,0.1-0.2,0.3-0.2,0.5C20.5,37.2,20.5,37.3,20.7,37.4 M21.1,36.1
		c0.2,0,0.5,0.1,0.6,0.2c0.2,0.2,0.2,0.4,0.2,0.6c0,0.2-0.1,0.4-0.2,0.6c-0.2,0.2-0.4,0.2-0.6,0.2s-0.5-0.1-0.6-0.2
		c-0.2-0.2-0.2-0.4-0.2-0.6c0-0.2,0.1-0.4,0.2-0.5l0.9-1.2h0.2L21,36.1C21,36.2,21,36.1,21.1,36.1"/>
	<path class="st1" d="M23.5,36c0,0.2,0.1,0.3,0.2,0.5c0.1,0.1,0.3,0.2,0.5,0.2s0.4-0.1,0.5-0.2s0.2-0.3,0.2-0.5s-0.1-0.3-0.2-0.5
		c-0.1-0.1-0.3-0.2-0.5-0.2s-0.4,0.1-0.5,0.2C23.6,35.7,23.5,35.8,23.5,36 M25,36c0,0.2-0.1,0.4-0.2,0.5L24,37.8h-0.2l0.6-0.9
		c-0.1,0-0.2,0-0.3,0c-0.2,0-0.5-0.1-0.6-0.2c-0.2-0.2-0.2-0.4-0.2-0.6c0-0.2,0.1-0.4,0.2-0.6c0.2-0.2,0.4-0.2,0.6-0.2
		s0.5,0.1,0.6,0.2C24.9,35.6,25,35.8,25,36"/>
	<path class="st1" d="M30.6,37.8v-0.2l0.9-1c0.3-0.3,0.4-0.5,0.4-0.7s-0.1-0.3-0.2-0.4c-0.1-0.1-0.2-0.1-0.4-0.1
		c-0.3,0-0.5,0.1-0.6,0.4l-0.2-0.1c0.1-0.2,0.2-0.3,0.3-0.3c0.1-0.1,0.3-0.1,0.5-0.1s0.4,0.1,0.5,0.2c0.1,0.1,0.2,0.3,0.2,0.5
		c0,0.1,0,0.3-0.1,0.4c-0.1,0.1-0.2,0.3-0.4,0.4l-0.8,0.8H32v0.2C32,37.8,30.6,37.8,30.6,37.8z"/>
	<path class="st1" d="M34.1,37.3c0.2,0.2,0.5,0.3,0.8,0.3s0.6-0.1,0.8-0.3s0.3-0.5,0.3-0.8s-0.1-0.6-0.3-0.8s-0.5-0.3-0.8-0.3
		s-0.6,0.1-0.8,0.3s-0.3,0.5-0.3,0.8S33.8,37.1,34.1,37.3 M35.8,37.4c-0.3,0.3-0.6,0.4-0.9,0.4c-0.4,0-0.7-0.1-0.9-0.4
		c-0.3-0.3-0.4-0.6-0.4-0.9c0-0.4,0.1-0.7,0.4-0.9c0.3-0.3,0.6-0.4,0.9-0.4c0.4,0,0.7,0.1,0.9,0.4c0.3,0.3,0.4,0.6,0.4,0.9
		C36.2,36.9,36,37.2,35.8,37.4"/>
	<polygon class="st1" points="38.1,35.2 38.3,35.2 38.3,37.8 38.1,37.8 38.1,35.4 37.5,35.6 37.5,35.5 	"/>
	<path class="st1" d="M40,36c0,0.2,0.1,0.3,0.2,0.5c0.1,0.1,0.3,0.2,0.5,0.2s0.4-0.1,0.5-0.2s0.2-0.3,0.2-0.5s-0.1-0.3-0.2-0.5
		c-0.1-0.1-0.3-0.2-0.5-0.2s-0.4,0.1-0.5,0.2C40.1,35.7,40,35.8,40,36 M41.5,36c0,0.2-0.1,0.4-0.2,0.5l-0.8,1.2h-0.2l0.6-0.9
		c-0.1,0-0.2,0-0.3,0c-0.2,0-0.5-0.1-0.6-0.2c-0.2-0.2-0.2-0.4-0.2-0.6c0-0.2,0.1-0.4,0.2-0.6c0.2-0.2,0.4-0.2,0.6-0.2
		c0.2,0,0.5,0.1,0.6,0.2C41.4,35.6,41.5,35.8,41.5,36"/>
	<rect x="27.7" y="34.8" class="st1" width="0.2" height="3.4"/>
	<rect x="56.6" y="2.4" class="st1" width="0.7" height="45.5"/>
</g>
</svg>
