<?xml version="1.0" encoding="utf-8"?>
<!-- Generator: Adobe Illustrator 23.0.1, SVG Export Plug-In . SVG Version: 6.00 Build 0)  -->
<svg version="1.1" id="_x35_0-atlas-concorde-negative"
	 xmlns="http://www.w3.org/2000/svg" xmlns:xlink="http://www.w3.org/1999/xlink" x="0px" y="0px" viewBox="0 0 282 50"
	 style="enable-background:new 0 0 282 50;" xml:space="preserve">
<style type="text/css">
	.st0{fill:#FFFFFF;}
	.st1{fill:#C10230;}
</style>
<g id="atlas-concorde-negative_1_">
	<g>
		<g>
			<rect x="130.1" y="12.3" class="st0" width="4.1" height="20.5"/>
			<path class="st0" d="M125.7,28.7c-0.9-0.6-0.9-1.8-0.9-1.8v-4.8h2.9v-4h-2.8v-5.7h-4V27c0.1,3.3,2.8,6,6.1,6c0.3,0,0.5,0,0.8,0
				v-4.2C127.8,28.8,126.5,29.2,125.7,28.7z"/>
			<path class="st0" d="M111,17.7c-4.2,0-7.6,3.4-7.6,7.6s3.4,7.5,7.5,7.5c1.3,0,2.5-0.3,3.6-1.2v1.2h4v-7.6
				C118.5,21.1,115.2,17.7,111,17.7z M111,29c-2,0-3.7-1.7-3.7-3.7s1.7-3.7,3.7-3.7s3.7,1.7,3.7,3.7S113,29,111,29z"/>
			<path class="st0" d="M188.6,17.6c-4.2,0-7.6,3.4-7.6,7.6s3.4,7.6,7.6,7.6s7.6-3.4,7.6-7.6S192.9,17.6,188.6,17.6z M188.6,28.8
				c-2,0-3.6-1.6-3.6-3.6s1.6-3.6,3.6-3.6s3.6,1.6,3.6,3.6S190.6,28.8,188.6,28.8z"/>
			<path class="st0" d="M260.2,18.6c-1.1-0.9-2.2-1-3.6-1c-4.2,0-7.5,3.4-7.5,7.5c0,4.2,3.4,7.6,7.6,7.6s7.6-3.4,7.6-7.6v-13h-4v6.5
				H260.2z M256.6,28.9c-2,0-3.7-1.7-3.7-3.7s1.7-3.7,3.7-3.7c2.1,0,3.7,1.7,3.7,3.7C260.4,27.3,258.8,28.9,256.6,28.9z"/>
			<path class="st0" d="M241.1,23.6v9.1h4v-9.1c0.2-1.2,1.2-2.1,2.4-2.1c0.2,0,0.5-0.1,0.6,0v-3.9c-0.2,0-0.4,0-0.6,0
				C244.1,17.6,241.4,20.3,241.1,23.6z"/>
			<path class="st0" d="M281.1,25.2c0-4.3-3.4-7.7-7.7-7.7c-4.3,0-7.7,3.4-7.7,7.7s3.4,7.7,7.7,7.7c3.3,0,6.1-2.1,7.2-4.9h-4.2
				c-0.7,0.8-1.9,1.3-3,1.3c-1.7,0-3.1-1-3.8-2.5h11.3v0.1C281,26.3,281.1,25.8,281.1,25.2z M269.6,23.5c0.6-1.4,2.1-2.4,3.7-2.4
				c1.7,0,3.1,1,3.7,2.4H269.6z"/>
			<path class="st0" d="M231.8,17.6c-4.2,0-7.6,3.4-7.6,7.6s3.4,7.6,7.6,7.6c4.2,0,7.6-3.4,7.6-7.6S236.1,17.6,231.8,17.6z
				 M231.8,28.8c-2,0-3.6-1.6-3.6-3.6s1.6-3.6,3.6-3.6s3.6,1.6,3.6,3.6S233.8,28.8,231.8,28.8z"/>
			<path class="st0" d="M204.6,17.6c-3.4,0-6.2,2.7-6.4,6v9.1h4v-9.1c0.2-1.2,1.2-2.1,2.4-2.1s2.2,0.9,2.4,2v9.1h4v-9.1
				C210.8,20.3,207.9,17.6,204.6,17.6z"/>
			<path class="st0" d="M159.6,23.3c-2.9-1-1.9-2.9-0.3-2.7c1,0.1,1.4,1.3,1.4,1.3l3.3-1.3c-0.7-1.9-2.7-3.1-5.1-3.1
				c-3,0-5.4,2.1-5.4,4.7c0,1.3,0.3,2.7,2.4,3.7c2.1,1,4.6,1.1,4.4,2.8c-0.2,1.5-2.1,1.1-2.5,1c-1.3-0.5-1.5-1.7-1.5-1.7l-3.1,1.2
				C154,32,156.6,33,159,33c3,0,5.5-2.1,5.5-4.7c0-1.3-0.6-2.6-1.5-3.4C162.9,24.9,162.4,24.2,159.6,23.3z"/>
			<path class="st0" d="M220.1,21.6c0.6,0,1.2,0.2,1.7,0.4l2-3.5c-1.1-0.6-2.4-1-3.7-1c-4.2,0-7.6,3.4-7.6,7.6s3.4,7.6,7.6,7.6
				c1.3,0,2.5-0.3,3.5-0.9l-1.9-3.6c-0.5,0.3-1.1,0.4-1.7,0.4c-2,0-3.6-1.6-3.6-3.6C216.6,23.2,218.1,21.6,220.1,21.6z"/>
			<path class="st0" d="M176.9,21.6c0.6,0,1.2,0.2,1.7,0.4l2-3.5c-1.1-0.6-2.4-1-3.7-1c-4.2,0-7.6,3.4-7.6,7.6s3.4,7.6,7.6,7.6
				c1.3,0,2.5-0.3,3.5-0.9l-1.9-3.6c-0.5,0.3-1.1,0.4-1.7,0.4c-2,0-3.6-1.6-3.6-3.6C173.4,23.2,174.9,21.6,176.9,21.6z"/>
			<path class="st0" d="M143.9,17.7c-4.2,0-7.6,3.4-7.6,7.6s3.4,7.5,7.5,7.5c1.3,0,2.5-0.3,3.6-1.2v1.2h4v-7.6
				C151.4,21.1,148.1,17.7,143.9,17.7z M143.9,29c-2,0-3.7-1.7-3.7-3.7s1.7-3.7,3.7-3.7c2.1,0,3.7,1.7,3.7,3.7
				C147.6,27.3,145.9,29,143.9,29z"/>
		</g>
		<path class="st1" d="M85.6,12.5L72.8,25.1l12.6,12.7L98.2,25L85.6,12.5z"/>
		<path class="st0" d="M91.8,22.5c0.3,0.8,0.5,1.7,0.5,2.6c0,3.7-3,6.8-6.8,6.8s-6.8-3-6.8-6.8c0-0.9,0.2-1.8,0.5-2.6
			C79.1,23,79,23.5,79,24c0,1.2,0.3,2.3,0.9,3.3c-0.6-2-0.9-4.3,1.2-6.4c1-0.9,1.6-2,1.6-2s-0.1,1-1,2.2s-2,3.3-0.2,6.6
			c0,0-1.2-3.2,0.5-5.6c1.6-2.3,1.4-3.4,1.4-3.4s0.8,1.4-0.3,3.3c-1.1,1.9-1.4,4.4,0.1,6.7c0,0-1.3-2.9,0-5.2c1.6-3.1,0.9-5,0.9-5
			s1.6,1.6,0.2,5c-1.3,3.3,0.6,5.7,0.6,5.7s-1.2-2.8-0.1-5.5c1.4-3.3,0.2-5.5,0.2-5.5s2,2,1.1,4.9c-0.8,2.7-0.7,3.8-0.3,5.2
			c0,0-0.3-1.7,0.9-5c1.1-2.9-0.9-5.1-0.9-5.1s2.4,1.3,2.1,4.4c-0.1,1.1-0.9,2.6-0.7,4.2c0.4-2.3,1.1-2.7,1.4-4.3
			c0.3-2.1-1.4-4.1-1.4-4.1c1.7,0.9,3.1,3.5,2.2,5.9c-0.9,2.5-0.9,4-0.9,4c0.7-2.6,1.2-2.7,1.5-4.3c0.6-2.6-1-4.8-1-4.8
			c3.6,3.4,1.5,7.9,1.5,7.9c1-1.1,1.3-2.6,1.1-4.1C91.8,22.9,91.8,22.7,91.8,22.5"/>
	</g>
</g>
<g id="_x35_0_1_">
	<polygon class="st0" points="20.7,14 19.7,12.5 20,12.5 20.8,13.8 21.6,12.5 21.9,12.5 21,14 21,15.1 20.7,15.1 	"/>
	<polygon class="st0" points="24.4,12.5 26.1,12.5 26.1,12.7 24.6,12.7 24.6,13.6 25.9,13.6 25.9,13.9 24.6,13.9 24.6,14.9 
		26.1,14.9 26.1,15.1 24.4,15.1 	"/>
	<path class="st0" d="M30.1,14.1l-0.5-1.3l-0.5,1.3H30.1z M29.7,12.5l1,2.6h-0.3l-0.3-0.8H29l-0.3,0.8h-0.3l1-2.6H29.7z"/>
	<path class="st0" d="M33.4,13.7h0.8c0.5,0,0.6-0.3,0.6-0.5c0-0.3-0.2-0.5-0.6-0.5h-0.8V13.7z M33.1,12.5h1.1c0.5,0,0.7,0.4,0.7,0.7
		c0,0.4-0.3,0.7-0.8,0.7l0.8,1.2h-0.3L34,13.9h-0.6V15h-0.2v-2.5H33.1z"/>
	<path class="st0" d="M37.7,14.3c0,0.4,0.3,0.6,0.7,0.6s0.7-0.2,0.7-0.5c0-0.8-1.5-0.3-1.5-1.3c0-0.5,0.5-0.7,0.8-0.7
		c0.4,0,0.8,0.1,0.9,0.6l-0.2,0.1c-0.1-0.3-0.4-0.5-0.7-0.5s-0.6,0.1-0.6,0.4c0,0.8,1.5,0.3,1.5,1.3c0,0.5-0.4,0.8-0.9,0.8
		s-0.9-0.2-1-0.7L37.7,14.3z"/>
	<path class="st0" d="M17.6,31.8h-2.7c0-5.1-4.1-9.2-9.2-9.2H0.6V12.4h15.7v2.7h-13v4.7h2.4C12.3,19.9,17.6,25.2,17.6,31.8"/>
	<path class="st0" d="M41.5,31.8h-2.7c0-5.1-4.1-9.2-9.2-9.2s-9.2,4.1-9.2,9.2h-2.7c0-6.6,5.4-11.9,11.9-11.9S41.5,25.2,41.5,31.8"
		/>
	<polygon class="st0" points="15.6,35.2 15.8,35.2 15.8,37.8 15.6,37.8 15.6,35.4 15,35.6 14.9,35.5 	"/>
	<path class="st0" d="M17.5,36c0,0.2,0.1,0.3,0.2,0.5c0.1,0.1,0.3,0.2,0.5,0.2s0.4-0.1,0.5-0.2s0.2-0.3,0.2-0.5s-0.1-0.3-0.2-0.5
		c-0.1-0.1-0.3-0.2-0.5-0.2s-0.4,0.1-0.5,0.2C17.5,35.7,17.5,35.8,17.5,36 M19,36c0,0.2-0.1,0.4-0.2,0.5L18,37.8h-0.2l0.6-0.9
		c-0.1,0-0.2,0-0.3,0c-0.2,0-0.5-0.1-0.6-0.2c-0.2-0.2-0.2-0.4-0.2-0.6c0-0.2,0.1-0.4,0.2-0.6c0.2-0.2,0.4-0.2,0.6-0.2
		s0.5,0.1,0.6,0.2C18.9,35.6,19,35.8,19,36"/>
	<path class="st0" d="M20.7,37.4c0.1,0.1,0.3,0.2,0.5,0.2s0.4-0.1,0.5-0.2c0.1-0.1,0.2-0.3,0.2-0.5s-0.1-0.3-0.2-0.5
		c-0.1-0.1-0.3-0.2-0.5-0.2s-0.4,0.1-0.5,0.2c-0.1,0.1-0.2,0.3-0.2,0.5C20.5,37.2,20.5,37.3,20.7,37.4 M21.1,36.1
		c0.2,0,0.5,0.1,0.6,0.2c0.2,0.2,0.2,0.4,0.2,0.6c0,0.2-0.1,0.4-0.2,0.6c-0.2,0.2-0.4,0.2-0.6,0.2s-0.5-0.1-0.6-0.2
		c-0.2-0.2-0.2-0.4-0.2-0.6c0-0.2,0.1-0.4,0.2-0.5l0.9-1.2h0.2L21,36.1C21,36.2,21,36.1,21.1,36.1"/>
	<path class="st0" d="M23.5,36c0,0.2,0.1,0.3,0.2,0.5c0.1,0.1,0.3,0.2,0.5,0.2s0.4-0.1,0.5-0.2s0.2-0.3,0.2-0.5s-0.1-0.3-0.2-0.5
		c-0.1-0.1-0.3-0.2-0.5-0.2s-0.4,0.1-0.5,0.2C23.6,35.7,23.5,35.8,23.5,36 M25,36c0,0.2-0.1,0.4-0.2,0.5L24,37.8h-0.2l0.6-0.9
		c-0.1,0-0.2,0-0.3,0c-0.2,0-0.5-0.1-0.6-0.2c-0.2-0.2-0.2-0.4-0.2-0.6c0-0.2,0.1-0.4,0.2-0.6c0.2-0.2,0.4-0.2,0.6-0.2
		s0.5,0.1,0.6,0.2C24.9,35.6,25,35.8,25,36"/>
	<path class="st0" d="M30.6,37.8v-0.2l0.9-1c0.3-0.3,0.4-0.5,0.4-0.7s-0.1-0.3-0.2-0.4c-0.1-0.1-0.2-0.1-0.4-0.1
		c-0.3,0-0.5,0.1-0.6,0.4l-0.2-0.1c0.1-0.2,0.2-0.3,0.3-0.3c0.1-0.1,0.3-0.1,0.5-0.1s0.4,0.1,0.5,0.2c0.1,0.1,0.2,0.3,0.2,0.5
		c0,0.1,0,0.3-0.1,0.4c-0.1,0.1-0.2,0.3-0.4,0.4l-0.8,0.8H32v0.2C32,37.8,30.6,37.8,30.6,37.8z"/>
	<path class="st0" d="M34.1,37.3c0.2,0.2,0.5,0.3,0.8,0.3s0.6-0.1,0.8-0.3s0.3-0.5,0.3-0.8s-0.1-0.6-0.3-0.8s-0.5-0.3-0.8-0.3
		s-0.6,0.1-0.8,0.3s-0.3,0.5-0.3,0.8S33.8,37.1,34.1,37.3 M35.8,37.4c-0.3,0.3-0.6,0.4-0.9,0.4c-0.4,0-0.7-0.1-0.9-0.4
		c-0.3-0.3-0.4-0.6-0.4-0.9c0-0.4,0.1-0.7,0.4-0.9c0.3-0.3,0.6-0.4,0.9-0.4c0.4,0,0.7,0.1,0.9,0.4c0.3,0.3,0.4,0.6,0.4,0.9
		C36.2,36.9,36,37.2,35.8,37.4"/>
	<polygon class="st0" points="38.1,35.2 38.3,35.2 38.3,37.8 38.1,37.8 38.1,35.4 37.5,35.6 37.5,35.5 	"/>
	<path class="st0" d="M40,36c0,0.2,0.1,0.3,0.2,0.5c0.1,0.1,0.3,0.2,0.5,0.2s0.4-0.1,0.5-0.2s0.2-0.3,0.2-0.5s-0.1-0.3-0.2-0.5
		c-0.1-0.1-0.3-0.2-0.5-0.2s-0.4,0.1-0.5,0.2C40.1,35.7,40,35.8,40,36 M41.5,36c0,0.2-0.1,0.4-0.2,0.5l-0.8,1.2h-0.2l0.6-0.9
		c-0.1,0-0.2,0-0.3,0c-0.2,0-0.5-0.1-0.6-0.2c-0.2-0.2-0.2-0.4-0.2-0.6c0-0.2,0.1-0.4,0.2-0.6c0.2-0.2,0.4-0.2,0.6-0.2
		c0.2,0,0.5,0.1,0.6,0.2C41.4,35.6,41.5,35.8,41.5,36"/>
	<rect x="27.7" y="34.8" class="st0" width="0.2" height="3.4"/>
	<rect x="56.6" y="2.4" class="st0" width="0.7" height="45.5"/>
</g>
</svg>
