<?xml version="1.0" encoding="utf-8"?>
<!-- Generator: Adobe Illustrator 23.0.1, SVG Export Plug-In . SVG Version: 6.00 Build 0)  -->
<svg version="1.1" id="atlas-concord-russia-negative_1_"
	 xmlns="http://www.w3.org/2000/svg" xmlns:xlink="http://www.w3.org/1999/xlink" x="0px" y="0px" viewBox="0 0 210 50"
	 style="enable-background:new 0 0 210 50;" xml:space="preserve">
<style type="text/css">
	.st0{fill:#FFFFFF;}
	.st1{fill:#C10230;}
</style>
<g id="atlas-concord-russia-negative">
	<g>
		<g>
			<g>
				<g>
					<g>
						<g>
							<g>
								<path class="st0" d="M127.9,39.6c2,0,3.2,1.1,3.2,2.9c0,1.5-0.8,2.4-2.2,2.7c0.3,0.1,0.5,0.4,0.8,0.8l1.7,2.9
									c0.1,0.2,0.1,0.4-0.2,0.4h-0.7c-0.5,0-0.6-0.1-0.8-0.3l-1.4-2.5c-0.4-0.8-0.9-1.1-2-1.1h-1.6v3.5c0,0.3-0.1,0.4-0.4,0.4
									h-0.7c-0.3,0-0.4-0.1-0.4-0.4v-9c0-0.3,0.1-0.4,0.4-0.4L127.9,39.6L127.9,39.6z M127.7,40.8h-3v3.3h3c1.2,0,1.9-0.6,1.9-1.7
									C129.6,41.4,128.9,40.8,127.7,40.8z"/>
								<path class="st0" d="M140.5,46c0,1.4,0.9,2.3,2.7,2.3c1.7,0,2.7-0.8,2.7-2.3v-6c0-0.3,0.1-0.4,0.4-0.4h0.7
									c0.3,0,0.4,0.1,0.4,0.4v6c0,2.2-1.4,3.5-4.1,3.5c-2.7,0-4.1-1.3-4.1-3.5v-6c0-0.3,0.1-0.4,0.4-0.4h0.7
									c0.3,0,0.4,0.1,0.4,0.4v6H140.5z"/>
								<path class="st0" d="M159.2,39.4c2,0,3.2,0.7,3.9,2.1c0.1,0.2,0,0.4-0.2,0.5l-0.6,0.3c-0.3,0.1-0.4,0.1-0.5-0.2
									c-0.5-0.9-1.3-1.4-2.6-1.4c-1.7,0-2.5,0.5-2.5,1.5c0,0.7,0.5,1.1,1.2,1.3c0.6,0.2,0.9,0.2,1.7,0.3c0.9,0.1,1.4,0.2,2.1,0.4
									c0.4,0.1,0.7,0.3,0.9,0.5c0.4,0.4,0.8,1,0.8,1.9c0,1.8-1.5,3-4.2,3c-2.2,0-3.4-0.8-4.1-2.3c-0.1-0.3,0-0.4,0.3-0.5l0.6-0.2
									c0.3-0.1,0.4,0,0.5,0.2c0.5,1,1.4,1.5,2.7,1.5c1.8,0,2.7-0.6,2.7-1.7c0-0.6-0.3-0.9-0.8-1.2c-0.6-0.2-1-0.3-1.8-0.4
									c-0.8-0.1-1.1-0.1-1.8-0.3c-0.4-0.1-0.6-0.2-0.9-0.3c-0.7-0.3-1.4-1-1.3-2.2C155.2,40.5,156.7,39.4,159.2,39.4z"/>
								<path class="st0" d="M174.8,39.4c2,0,3.2,0.7,3.9,2.1c0.1,0.2,0,0.4-0.2,0.5l-0.6,0.3c-0.3,0.1-0.4,0.1-0.5-0.2
									c-0.5-0.9-1.3-1.4-2.6-1.4c-1.7,0-2.5,0.5-2.5,1.5c0,0.7,0.5,1.1,1.2,1.3c0.6,0.2,0.9,0.2,1.7,0.3c0.9,0.1,1.4,0.2,2.1,0.4
									c0.4,0.1,0.7,0.3,0.9,0.5c0.4,0.4,0.8,1,0.8,1.9c0,1.8-1.5,3-4.2,3c-2.2,0-3.4-0.8-4.1-2.3c-0.1-0.3,0-0.4,0.3-0.5l0.6-0.2
									c0.3-0.1,0.4,0,0.5,0.2c0.5,1,1.4,1.5,2.7,1.5c1.8,0,2.7-0.6,2.7-1.7c0-0.6-0.3-0.9-0.8-1.2c-0.6-0.2-1-0.3-1.8-0.4
									c-0.8-0.1-1.1-0.1-1.8-0.3c-0.4-0.1-0.6-0.2-0.9-0.3c-0.7-0.3-1.4-1-1.3-2.2C170.8,40.5,172.2,39.4,174.8,39.4z"/>
								<path class="st0" d="M186.7,39.9c0-0.3,0.1-0.4,0.4-0.4h0.7c0.3,0,0.4,0.1,0.4,0.4v9c0,0.3-0.1,0.4-0.4,0.4h-0.7
									c-0.3,0-0.4-0.1-0.4-0.4V39.9z"/>
								<path class="st0" d="M205.1,48.9c0.1,0.2,0,0.4-0.3,0.4h-0.6c-0.5,0-0.6-0.1-0.7-0.3l-0.9-2.2h-4.4l-0.9,2.2
									c-0.1,0.3-0.2,0.3-0.7,0.3H196c-0.3,0-0.4-0.1-0.3-0.4l3.9-9.1c0.1-0.2,0.2-0.3,0.5-0.3h0.6c0.3,0,0.4,0.1,0.5,0.3
									L205.1,48.9z M200.7,42.1c-0.2-0.5-0.3-0.9-0.3-1.3h-0.1V41c0,0.2-0.1,0.7-0.2,1.1l-1.5,3.6h3.6L200.7,42.1z"/>
							</g>
						</g>
					</g>
				</g>
			</g>
		</g>
		<g>
			<g>
				<rect x="57.9" y="12.3" class="st0" width="4.1" height="20.5"/>
				<path class="st0" d="M53.4,28.7c-0.9-0.6-0.9-1.8-0.9-1.8v-4.8h2.9v-4h-2.8v-5.7h-4V27c0.1,3.3,2.8,6,6.1,6c0.3,0,0.5,0,0.8,0
					v-4.2C55.5,28.8,54.3,29.2,53.4,28.7z"/>
				<path class="st0" d="M38.8,17.7c-4.2,0-7.6,3.4-7.6,7.6s3.4,7.5,7.5,7.5c1.3,0,2.5-0.3,3.6-1.2v1.2h4v-7.6
					C46.3,21.1,43,17.7,38.8,17.7z M38.8,29c-2,0-3.7-1.7-3.7-3.7s1.7-3.7,3.7-3.7s3.7,1.7,3.7,3.7S40.8,29,38.8,29z"/>
				<path class="st0" d="M116.4,17.6c-4.2,0-7.6,3.4-7.6,7.6s3.4,7.6,7.6,7.6s7.6-3.4,7.6-7.6S120.6,17.6,116.4,17.6z M116.4,28.8
					c-2,0-3.6-1.6-3.6-3.6s1.6-3.6,3.6-3.6s3.6,1.6,3.6,3.6S118.4,28.8,116.4,28.8z"/>
				<path class="st0" d="M188.1,18.6c-1.1-0.9-2.2-1-3.6-1c-4.2,0-7.5,3.4-7.5,7.5c0,4.2,3.4,7.6,7.6,7.6c4.2,0,7.6-3.4,7.6-7.6v-13
					h-4v6.5H188.1z M184.4,28.9c-2,0-3.7-1.7-3.7-3.7s1.7-3.7,3.7-3.7c2.1,0,3.7,1.7,3.7,3.7C188.2,27.3,186.5,28.9,184.4,28.9z"/>
				<path class="st0" d="M169,23.6v9.1h4v-9.1c0.2-1.2,1.2-2.1,2.4-2.1c0.2,0,0.5-0.1,0.6,0v-3.9c-0.2,0-0.4,0-0.6,0
					C172,17.6,169.2,20.3,169,23.6z"/>
				<path class="st0" d="M208.8,25.2c0-4.3-3.4-7.7-7.7-7.7s-7.7,3.4-7.7,7.7s3.4,7.7,7.7,7.7c3.3,0,6.1-2.1,7.2-4.9h-4.2
					c-0.7,0.8-1.9,1.3-3,1.3c-1.7,0-3.1-1-3.8-2.5h11.3v0.1C208.8,26.3,208.8,25.8,208.8,25.2z M197.4,23.5c0.6-1.4,2.1-2.4,3.7-2.4
					c1.7,0,3.1,1,3.7,2.4H197.4z"/>
				<path class="st0" d="M159.6,17.6c-4.2,0-7.6,3.4-7.6,7.6s3.4,7.6,7.6,7.6c4.2,0,7.6-3.4,7.6-7.6C167.2,21,163.8,17.6,159.6,17.6
					z M159.6,28.8c-2,0-3.6-1.6-3.6-3.6s1.6-3.6,3.6-3.6s3.6,1.6,3.6,3.6C163.2,27.2,161.6,28.8,159.6,28.8z"/>
				<path class="st0" d="M132.3,17.6c-3.4,0-6.2,2.7-6.4,6v9.1h4v-9.1c0.2-1.2,1.2-2.1,2.4-2.1s2.2,0.9,2.4,2v9.1h4v-9.1
					C138.5,20.3,135.7,17.6,132.3,17.6z"/>
				<path class="st0" d="M87.3,23.3c-2.9-1-1.9-2.9-0.3-2.7c1,0.1,1.4,1.3,1.4,1.3l3.3-1.3c-0.7-1.9-2.7-3.1-5.1-3.1
					c-3,0-5.4,2.1-5.4,4.7c0,1.3,0.3,2.7,2.4,3.7s4.6,1.1,4.4,2.8c-0.2,1.5-2.1,1.1-2.5,1C84.2,29.2,84,28,84,28l-3.1,1.2
					c0.9,2.8,3.5,3.8,5.9,3.8c3,0,5.5-2.1,5.5-4.7c0-1.3-0.6-2.6-1.5-3.4C90.7,24.9,90.2,24.2,87.3,23.3z"/>
				<path class="st0" d="M147.9,21.6c0.6,0,1.2,0.2,1.7,0.4l2-3.5c-1.1-0.6-2.4-1-3.7-1c-4.2,0-7.6,3.4-7.6,7.6s3.4,7.6,7.6,7.6
					c1.3,0,2.5-0.3,3.5-0.9l-1.9-3.6c-0.5,0.3-1.1,0.4-1.7,0.4c-2,0-3.6-1.6-3.6-3.6C144.3,23.2,145.9,21.6,147.9,21.6z"/>
				<path class="st0" d="M104.7,21.6c0.6,0,1.2,0.2,1.7,0.4l2-3.5c-1.1-0.6-2.4-1-3.7-1c-4.2,0-7.6,3.4-7.6,7.6s3.4,7.6,7.6,7.6
					c1.3,0,2.5-0.3,3.5-0.9l-1.9-3.6c-0.5,0.3-1.1,0.4-1.7,0.4c-2,0-3.6-1.6-3.6-3.6C101.1,23.2,102.7,21.6,104.7,21.6z"/>
				<path class="st0" d="M71.7,17.7c-4.2,0-7.6,3.4-7.6,7.6s3.4,7.5,7.5,7.5c1.3,0,2.5-0.3,3.6-1.2v1.2h4v-7.6
					C79.2,21.1,75.8,17.7,71.7,17.7z M71.7,29c-2,0-3.7-1.7-3.7-3.7s1.7-3.7,3.7-3.7c2.1,0,3.7,1.7,3.7,3.7
					C75.4,27.3,73.7,29,71.7,29z"/>
			</g>
			<path class="st1" d="M13.3,12.5L0.6,25.1l12.6,12.7L26,25L13.3,12.5z"/>
			<path class="st0" d="M19.6,22.5c0.3,0.8,0.5,1.7,0.5,2.6c0,3.7-3,6.8-6.8,6.8s-6.8-3-6.8-6.8c0-0.9,0.2-1.8,0.5-2.6
				c-0.1,0.5-0.2,1-0.2,1.5c0,1.2,0.3,2.3,0.9,3.3c-0.6-2-0.9-4.3,1.2-6.4c1-0.9,1.6-2,1.6-2s-0.1,1-1,2.2s-2,3.3-0.2,6.6
				c0,0-1.2-3.2,0.5-5.6c1.6-2.3,1.4-3.4,1.4-3.4s0.8,1.4-0.3,3.3s-1.4,4.4,0.1,6.7c0,0-1.3-2.9,0-5.2c1.6-3.1,0.9-5,0.9-5
				s1.6,1.6,0.2,5c-1.3,3.3,0.6,5.7,0.6,5.7s-1.2-2.8-0.1-5.5c1.4-3.3,0.2-5.5,0.2-5.5s2,2,1.1,4.9c-0.8,2.7-0.7,3.8-0.3,5.2
				c0,0-0.3-1.7,0.9-5c1.1-2.9-0.9-5.1-0.9-5.1s2.4,1.3,2.1,4.4c-0.1,1.1-0.9,2.6-0.7,4.2c0.4-2.3,1.1-2.7,1.4-4.3
				c0.3-2.1-1.4-4.1-1.4-4.1c1.7,0.9,3.1,3.5,2.2,5.9c-0.9,2.5-0.9,4-0.9,4c0.7-2.6,1.2-2.7,1.5-4.3c0.6-2.6-1-4.8-1-4.8
				c3.6,3.4,1.5,7.9,1.5,7.9c1-1.1,1.3-2.6,1.1-4.1C19.6,22.9,19.6,22.7,19.6,22.5"/>
		</g>
	</g>
</g>
</svg>
