<?xml version="1.0" encoding="utf-8"?>
<!-- Generator: Adobe Illustrator 23.0.1, SVG Export Plug-In . SVG Version: 6.00 Build 0)  -->
<svg version="1.1" id="atlas-concorde-solution_1_" xmlns="http://www.w3.org/2000/svg" xmlns:xlink="http://www.w3.org/1999/xlink"
	 x="0px" y="0px" viewBox="0 0 210 50" style="enable-background:new 0 0 210 50;" xml:space="preserve">
<style type="text/css">
	.st0{fill:#FAA61A;}
	.st1{fill:#002B5C;}
	.st2{fill:#C31F3D;}
	.st3{fill:#FFFFFF;}
</style>
<g id="atlas-concorde-solution">
	<g>
		<g>
			<path class="st0" d="M125.6,43.8c1.1,0.6,2.4,0.9,3.6,0.9c1.8,0,2.9-0.8,2.9-1.8c0-1.1-1.1-1.7-3.2-1.7c-1.4,0-2-0.1-2-0.7
				c0-0.4,0.6-0.8,1.7-0.8c0.8,0,1.8,0.2,2.7,0.7l0.5-0.7c-1-0.5-2-0.8-3.2-0.8c-1.7,0-2.7,0.6-2.7,1.5c0,1.1,1.1,1.4,3.1,1.4
				c1.4,0,2,0.3,2,0.9c0,0.6-0.7,1-2,1c-0.9,0-2.1-0.3-3-0.8L125.6,43.8z M141.1,44.7c2.4,0,4-1.3,4-2.9c0-1.6-1.6-2.8-4-2.8
				s-4,1.2-4,2.8C137.1,43.4,138.7,44.7,141.1,44.7 M141.1,43.9c-1.8,0-3-0.9-3-2.1s1.2-2.1,3-2.1s3,0.9,3,2.1
				C144,43,142.9,43.9,141.1,43.9 M150.4,44.5h5.9v-0.8h-4.9v-4.6h-1V44.5L150.4,44.5z M161.2,39.1v3.7c0,1.3,0.9,1.9,3.2,1.9
				s3.3-0.5,3.3-1.9v-3.7h-1v3.4c0,1.1-0.5,1.3-2.2,1.3s-2.2-0.3-2.2-1.3v-3.4H161.2z M175.1,44.5h1v-4.6h2.8v-0.7h-6.6v0.7h2.8
				V44.5L175.1,44.5z M183.6,44.5h1v-5.4h-1V44.5z M194,44.7c2.4,0,4-1.3,4-2.9c0-1.6-1.6-2.8-4-2.8s-4,1.2-4,2.8
				C190,43.4,191.6,44.7,194,44.7 M194,43.9c-1.8,0-3-0.9-3-2.1c0-1.2,1.2-2.1,3-2.1s3,0.9,3,2.1S195.8,43.9,194,43.9 M203.4,44.5h1
				v-3.8l4.2,3.8h0.5v-5.4h-1v3.8l-4.2-3.8h-0.5V44.5L203.4,44.5z"/>
		</g>
		<rect x="58.1" y="12.2" class="st1" width="4.1" height="20.5"/>
		<g>
			<path class="st1" d="M53.6,28.5c-0.9-0.6-0.9-1.8-0.9-1.8v-4.8h2.9v-4h-2.8v-5.7h-4v14.7c0.1,3.3,2.8,6,6.1,6c0.3,0,0.5,0,0.8,0
				v-4.2C55.7,28.6,54.5,29.1,53.6,28.5"/>
			<path class="st1" d="M39,28.8c-2,0-3.7-1.7-3.7-3.7s1.7-3.7,3.7-3.7s3.7,1.7,3.7,3.7S41,28.8,39,28.8 M39,17.5
				c-4.2,0-7.6,3.4-7.6,7.6s3.3,7.5,7.5,7.5c1.3,0,2.5-0.3,3.6-1.2v1.2h4V25C46.6,20.9,43.2,17.5,39,17.5"/>
			<path class="st1" d="M116.5,28.6c-2,0-3.6-1.6-3.6-3.6s1.6-3.6,3.6-3.6s3.6,1.6,3.6,3.6S118.5,28.6,116.5,28.6 M116.5,17.4
				c-4.2,0-7.6,3.4-7.6,7.6s3.4,7.6,7.6,7.6s7.6-3.4,7.6-7.6S120.7,17.4,116.5,17.4"/>
			<path class="st1" d="M184.5,28.8c-2,0-3.7-1.7-3.7-3.7s1.7-3.7,3.7-3.7s3.7,1.7,3.7,3.7S186.5,28.8,184.5,28.8 M188.1,18.5
				c-1.1-0.9-2.2-1-3.6-1c-4.2,0-7.5,3.4-7.5,7.5c0,4.2,3.4,7.6,7.6,7.6c4.2,0,7.6-3.4,7.6-7.5v-13h-4L188.1,18.5L188.1,18.5z"/>
			<path class="st1" d="M169,23.5v9.1h4v-9.1c0.2-1.2,1.2-2.1,2.4-2.1c0.2,0,0.5-0.1,0.6,0v-3.9c-0.2,0-0.4,0-0.6,0
				C172,17.5,169.2,20.1,169,23.5"/>
			<path class="st1" d="M197.4,23.4c0.6-1.4,2.1-2.4,3.7-2.4c1.7,0,3.1,1,3.7,2.4H197.4z M208.8,25.1c0-4.2-3.4-7.7-7.7-7.7
				c-4.2,0-7.7,3.4-7.7,7.7c0,4.2,3.4,7.7,7.7,7.7c3.3,0,6-2.1,7.2-4.9h-4.1c-0.7,0.8-1.9,1.3-3,1.3c-1.7,0-3.1-1-3.7-2.5h11.3v0.1
				C208.7,26.2,208.8,25.6,208.8,25.1"/>
			<path class="st1" d="M159.6,28.6c-2,0-3.6-1.6-3.6-3.6s1.6-3.6,3.6-3.6s3.6,1.6,3.6,3.6C163.2,27,161.6,28.6,159.6,28.6
				 M159.6,17.4c-4.2,0-7.6,3.4-7.6,7.6s3.4,7.6,7.6,7.6c4.2,0,7.6-3.4,7.6-7.6C167.2,20.8,163.8,17.4,159.6,17.4"/>
			<path class="st1" d="M132.4,17.5c-3.4,0-6.2,2.7-6.4,6v9.1h4v-9.1c0.2-1.2,1.2-2.1,2.4-2.1s2.2,0.9,2.4,2v9.1h4v-9.1
				C138.6,20.1,135.8,17.5,132.4,17.5"/>
			<path class="st1" d="M87.5,23.1c-2.9-1-1.9-2.9-0.3-2.7c1,0.1,1.4,1.3,1.4,1.3l3.3-1.3c-0.7-1.9-2.7-3.1-5.1-3.1
				c-3,0-5.4,2.1-5.4,4.7c0,1.3,0.3,2.7,2.4,3.7s4.5,1.1,4.4,2.8c-0.2,1.5-2.1,1.1-2.5,1c-1.3-0.5-1.5-1.7-1.5-1.7L81,29
				c0.9,2.8,3.5,3.8,5.8,3.8c3,0,5.4-2.1,5.4-4.7c0-1.3-0.6-2.5-1.5-3.4C90.8,24.7,90.3,24.1,87.5,23.1"/>
			<path class="st1" d="M148,21.4c0.6,0,1.2,0.2,1.7,0.4l2-3.5c-1.1-0.6-2.4-1-3.7-1c-4.2,0-7.6,3.4-7.6,7.6s3.4,7.6,7.6,7.6
				c1.3,0,2.5-0.3,3.5-0.9l-1.8-3.6c-0.5,0.3-1.1,0.4-1.7,0.4c-2,0-3.6-1.6-3.6-3.6C144.4,23,146,21.4,148,21.4"/>
			<path class="st1" d="M104.8,21.4c0.6,0,1.2,0.2,1.7,0.4l2-3.5c-1.1-0.6-2.4-1-3.7-1c-4.2,0-7.6,3.4-7.6,7.6s3.4,7.6,7.6,7.6
				c1.3,0,2.5-0.3,3.5-0.9l-1.9-3.6c-0.5,0.3-1.1,0.4-1.7,0.4c-2,0-3.6-1.6-3.6-3.6C101.2,23,102.8,21.4,104.8,21.4"/>
			<path class="st1" d="M71.8,28.8c-2,0-3.7-1.7-3.7-3.7s1.7-3.7,3.7-3.7s3.7,1.7,3.7,3.7S73.9,28.8,71.8,28.8 M71.8,17.5
				c-4.2,0-7.6,3.4-7.6,7.6s3.3,7.5,7.5,7.5c1.3,0,2.5-0.3,3.6-1.2v1.2h4V25C79.4,20.9,76,17.5,71.8,17.5"/>
		</g>
		<polygon class="st2" points="13.6,12.4 0.9,24.9 13.5,37.6 26.2,24.9 		"/>
		<g>
			<path class="st3" d="M19.8,22.3c0.3,0.8,0.5,1.7,0.5,2.6c0,3.7-3,6.8-6.8,6.8s-6.8-3-6.8-6.8c0-0.9,0.2-1.8,0.5-2.6
				c-0.1,0.5-0.2,1-0.2,1.5c0,1.2,0.3,2.3,0.9,3.3c-0.6-2-0.9-4.3,1.2-6.4c1-0.9,1.6-2,1.6-2s-0.1,1-1,2.2s-2,3.3-0.2,6.6
				c0,0-1.2-3.2,0.5-5.6c1.6-2.3,1.4-3.4,1.4-3.4s0.8,1.4-0.3,3.3s-1.3,4.4,0.1,6.7c0,0-1.3-2.9,0-5.2c1.6-3.1,0.9-5,0.9-5
				s1.6,1.6,0.2,5C11,26.6,12.9,29,12.9,29s-1.2-2.8-0.1-5.5c1.4-3.3,0.2-5.4,0.2-5.4s2,2,1.1,4.9c-0.8,2.7-0.7,3.8-0.3,5.2
				c0,0-0.3-1.7,0.9-5c1.1-2.9-0.9-5.1-0.9-5.1s2.4,1.3,2.1,4.4c-0.1,1.1-0.9,2.5-0.7,4.2c0.4-2.3,1.1-2.7,1.4-4.3
				c0.3-2.1-1.4-4.1-1.4-4.1c1.7,0.9,3.1,3.5,2.2,5.9c-0.9,2.5-0.9,4-0.9,4c0.7-2.6,1.2-2.7,1.5-4.3c0.6-2.6-1-4.8-1-4.8
				c3.6,3.4,1.5,7.9,1.5,7.9c1-1.1,1.3-2.6,1.1-4.1C19.9,22.8,19.9,22.6,19.8,22.3"/>
		</g>
	</g>
</g>
</svg>
