<?xml version="1.0" encoding="utf-8"?>
<!-- Generator: Adobe Illustrator 23.0.1, SVG Export Plug-In . SVG Version: 6.00 Build 0)  -->
<svg version="1.1" id="ceramics-made-in-italy" xmlns="http://www.w3.org/2000/svg" xmlns:xlink="http://www.w3.org/1999/xlink"
	 x="0px" y="0px" viewBox="0 0 213 38.8" style="enable-background:new 0 0 213 38.8;" xml:space="preserve">
<style type="text/css">
	.st0{fill-rule:evenodd;clip-rule:evenodd;fill:#FFFFFF;}
	.st1{fill-rule:evenodd;clip-rule:evenodd;fill:#E31319;}
	.st2{fill-rule:evenodd;clip-rule:evenodd;fill:#26A232;}
	.st3{fill-rule:evenodd;clip-rule:evenodd;fill:#191919;}
</style>
<g id="Shape_1672_copy">
	
		<image style="overflow:visible;opacity:0.2;" width="218" height="18" xlink:href="EA3F6B5E49242EC7.png"  transform="matrix(1 0 0 1 -2 23.75)">
	</image>
	<g>
		<rect x="4" y="28.2" class="st0" width="206" height="5"/>
	</g>
</g>
<path id="Shape_1672_copy_2" class="st1" d="M142,33.2v-5h68v5H142z"/>
<path id="Shape_1672_copy_4" class="st2" d="M4,33.2v-5h68v5H4z"/>
<path id="Ceramics_made_in_Italy_copy" class="st3" d="M7.7,9.7c0.6,0,1.1-0.1,1.6-0.3c0.5-0.2,0.9-0.5,1.3-0.8L10.2,8
	C9.9,8.4,9.5,8.6,9,8.8C8.6,9,8.1,9.1,7.7,9.1c-0.9,0.1-1.7-0.3-2.3-1C4.8,7.3,4.5,6.3,4.5,5.4c-0.1-1,0.2-1.9,0.8-2.7
	c0.6-0.7,1.4-1,2.3-1c0.5,0,0.9,0.1,1.4,0.2c0.5,0.2,0.9,0.5,1.2,0.8l0.3-0.6c-0.4-0.4-0.8-0.7-1.3-0.8C8.8,1.1,8.2,1,7.7,1
	C6.9,1,6.2,1.2,5.6,1.5C5,1.9,4.5,2.4,4.3,3C3.9,3.8,3.8,4.6,3.8,5.4c0,0.8,0.1,1.6,0.5,2.3C4.5,8.3,5,8.9,5.6,9.2
	C6.2,9.6,6.9,9.8,7.7,9.7L7.7,9.7L7.7,9.7z M15,9.6h5.3V9h-4.5V5.6H20V5h-4.3V1.7h4.5V1.1H15V9.6L15,9.6z M30.2,6.7
	c-0.1-0.3-0.2-0.5-0.4-0.7c-0.2-0.2-0.4-0.3-0.6-0.3c0.5-0.1,0.9-0.4,1.2-0.8c0.3-0.4,0.5-0.9,0.4-1.4c0-0.7-0.2-1.3-0.7-1.7
	C29.5,1.3,28.8,1,28,1.1h-3.3v8.5h0.8V5.8h2.4c0.4,0,0.7,0,1.1,0.2c0.3,0.2,0.5,0.5,0.6,0.8l1.1,2.8h0.8L30.2,6.7z M25.5,5.2V1.7H28
	c1.4,0,2.1,0.6,2.1,1.7c0,1.2-0.7,1.8-2.1,1.8H25.5z M42.2,9.6h0.8l-3.7-8.5h-0.7l-3.7,8.5h0.8l1-2.3h4.6L42.2,9.6z M36.9,6.7l2-4.7
	l2,4.7H36.9z M54.4,1.1l-3.3,7.7l-3.4-7.7h-0.6v8.5h0.7l0-6.8l3,6.8h0.6l3-6.8v6.8H55V1.1L54.4,1.1L54.4,1.1z M59.9,9.6h0.7V1.1
	h-0.7V9.6L59.9,9.6z M69.1,9.7c0.6,0,1.1-0.1,1.6-0.3C71.2,9.3,71.7,9,72,8.6L71.7,8c-0.4,0.3-0.8,0.6-1.2,0.8
	c-0.4,0.2-0.9,0.3-1.4,0.2c-0.9,0.1-1.7-0.3-2.3-1C66.2,7.3,66,6.3,66,5.4c-0.1-1,0.2-1.9,0.8-2.7c0.6-0.7,1.4-1,2.3-1
	c0.5,0,0.9,0.1,1.4,0.2c0.5,0.2,0.9,0.5,1.2,0.8L72,2.1c-0.4-0.4-0.8-0.7-1.3-0.8C70.2,1.1,69.7,1,69.1,1c-0.7,0-1.4,0.2-2.1,0.5
	C66.5,1.9,66,2.4,65.7,3c-0.3,0.7-0.5,1.5-0.5,2.3c0,0.8,0.1,1.6,0.5,2.3c0.3,0.6,0.8,1.2,1.3,1.5C67.7,9.6,68.4,9.8,69.1,9.7
	L69.1,9.7L69.1,9.7z M79,9.7c0.5,0,1.1-0.1,1.6-0.3C81,9.3,81.4,9,81.7,8.6c0.3-0.4,0.4-0.8,0.4-1.2c0-0.4-0.1-0.8-0.4-1.2
	c-0.3-0.3-0.6-0.5-1-0.6c-0.5-0.2-1-0.3-1.5-0.4L78.8,5c-0.5-0.1-1.1-0.3-1.6-0.6c-0.4-0.2-0.6-0.6-0.5-1.1c0-0.5,0.2-1,0.6-1.3
	c0.5-0.3,1.1-0.5,1.7-0.5c0.5,0,0.9,0.1,1.4,0.3c0.5,0.2,0.9,0.5,1.2,0.8l0.3-0.6c-0.4-0.4-0.8-0.7-1.3-0.8C80.1,1.1,79.6,1,79,1
	c-0.5,0-1.1,0.1-1.6,0.3c-0.4,0.2-0.8,0.5-1.1,0.9C76.1,2.5,76,3,76,3.4c0,0.5,0.1,0.9,0.4,1.2c0.3,0.3,0.6,0.6,1,0.7
	c0.5,0.2,1.1,0.3,1.6,0.5c0.4,0.1,0.8,0.2,1.2,0.3c0.3,0.1,0.5,0.3,0.8,0.5c0.2,0.2,0.3,0.5,0.3,0.8c0,0.5-0.2,1-0.6,1.2
	c-0.5,0.3-1.1,0.5-1.7,0.4c-0.5,0-1.1-0.1-1.6-0.2C77,8.6,76.6,8.4,76.2,8l-0.3,0.6c0.4,0.4,0.9,0.7,1.4,0.8
	C77.8,9.6,78.4,9.7,79,9.7L79,9.7L79,9.7z M99.1,1.1l-2.9,6.7l-2.9-6.7H92v8.5h1.4V4.4l2.3,5.2h1L99,4.3v5.3h1.4V1.1H99.1L99.1,1.1z
	 M111.4,9.6h1.6l-3.9-8.5h-1.3L104,9.6h1.6l0.9-2h4.2L111.4,9.6z M106.9,6.4l1.6-3.7l1.6,3.7H106.9L106.9,6.4z M116.6,9.6h3.2
	c1.2,0.1,2.4-0.3,3.3-1.1c1.5-1.8,1.5-4.5,0-6.3c-0.9-0.8-2.1-1.2-3.3-1.1h-3.2V9.6z M118.1,8.4v-6h1.5c2,0,2.9,1,2.9,3
	c0,2-1,3-2.9,3H118.1z M128.4,9.6h5.7V8.4H130V5.9h3.9V4.7H130V2.3h4.2V1.1h-5.7V9.6z M144.3,9.6h1.6V1.1h-1.6V9.6z M156.1,1.1v6
	l-4.6-6h-1.2v8.5h1.4v-6l4.6,6h1.2V1.1H156.1z M168.1,9.6h1.6V1.1h-1.6V9.6z M176.2,9.6h1.6V2.4h2.8V1.1h-7.1v1.3h2.8L176.2,9.6
	L176.2,9.6z M189.8,9.6h1.6l-3.9-8.5h-1.3l-3.9,8.5h1.6l0.9-2h4.2L189.8,9.6z M185.3,6.4l1.6-3.7l1.6,3.7H185.3L185.3,6.4z M195,9.6
	h5.5V8.4h-4V1.1H195V9.6z M210,1.1h-1.8L205.8,5l-2.5-3.9h-1.8l3.5,5.2v3.4h1.6V6.2L210,1.1z"/>
</svg>
