<svg id="epd" xmlns="http://www.w3.org/2000/svg" width="128" height="128" viewBox="0 0 128 128">
  <defs>
    <style>
      .cls-1 {
        fill: #0a9f4c;
      }

      .cls-1, .cls-2 {
        fill-rule: evenodd;
      }

      .cls-2 {
        fill: #fff;
      }
    </style>
  </defs>
  <path class="cls-1" d="M64,128.006A64,64,0,1,0,0,64a64,64,0,0,0,64,64m-9.237-31.4c-1.04,1.548-2.06,3.074-3.1,4.588a0.367,0.367,0,0,1-.361.032,22.208,22.208,0,0,1-5.164-5.447A23.178,23.178,0,0,1,42.655,87.2c-0.1-.5-0.155-1.017-0.215-1.528-0.07-.589-0.063-0.589-0.654-0.589-1.065,0-2.13,0-3.195,0H38.037c2.363-4.237,4.681-8.386,7.046-12.621,2.363,4.23,4.678,8.374,7.041,12.606h-4.1a16.985,16.985,0,0,0,6.743,11.546m7.179-25.928V66.457a15.594,15.594,0,0,0-6.287,2.273A16.321,16.321,0,0,0,50.8,73.415c-1.5-1.08-2.974-2.135-4.432-3.207a0.444,0.444,0,0,1-.017-0.411,21.812,21.812,0,0,1,4.072-4.417,21.571,21.571,0,0,1,9.514-4.5c0.529-.105,1.065-0.173,1.6-0.228a0.4,0.4,0,0,0,.413-0.489c-0.015-1.173-.008-2.343-0.005-3.515,0-.15.015-0.3,0.028-0.516l12.178,7.266L61.944,70.681M89.967,80.816C87.6,85.06,85.284,89.2,82.918,93.439c-2.358-4.222-4.673-8.366-7.033-12.6h4.077a16.882,16.882,0,0,0-2.2-6.515A16.51,16.51,0,0,0,73.224,69.3c0.649-.965,1.278-1.9,1.907-2.831,0.381-.561.774-1.113,1.138-1.684,0.158-.253.281-0.238,0.491-0.075a22.464,22.464,0,0,1,8.336,12.9c0.206,0.914.338,1.849,0.476,2.781a0.4,0.4,0,0,0,.474.431c1.1-.017,2.212-0.007,3.32-0.007h0.6m-23.9,28.969c-4.1-2.451-8.111-4.841-12.208-7.287l12.185-7.274v4.215a15.491,15.491,0,0,0,6.3-2.273A16.178,16.178,0,0,0,77.2,92.481c1.391,1,2.749,1.98,4.1,2.964,0.529,0.386.531,0.4,0.15,0.93a21.435,21.435,0,0,1-7.161,6.367,20.585,20.585,0,0,1-7.823,2.506,0.4,0.4,0,0,0-.406.494c0.015,1.157,0,2.315,0,3.472v0.572Zm7.981-66.1h7.266a8.617,8.617,0,0,0,3.646-.777,9.767,9.767,0,0,0,2.957-2.08,9.591,9.591,0,0,0,1.98-3.019,9.271,9.271,0,0,0-.013-7.166,9.627,9.627,0,0,0-1.992-3.007,9.91,9.91,0,0,0-2.957-2.067,8.562,8.562,0,0,0-3.621-.777H74.046V43.681Zm4.911-14.733h1.128a6.017,6.017,0,0,1,2.255.4A4.718,4.718,0,0,1,85.1,32.13a5.815,5.815,0,0,1,.376,2.1,6,6,0,0,1-.363,2.117,4.743,4.743,0,0,1-1.052,1.666,4.9,4.9,0,0,1-1.691,1.1,6.086,6.086,0,0,1-2.28.4H78.957V28.947ZM61.468,37.416h2.906a6.69,6.69,0,0,0,4.874-1.654A6.221,6.221,0,0,0,70.939,31.1a6.221,6.221,0,0,0-1.691-4.66,6.69,6.69,0,0,0-4.874-1.654H56.557V43.681h4.911V37.416Zm0-8.67H63.1q2.706,0,2.706,2.355T63.1,33.458H61.468V28.747Zm-8.945-3.959H41.774V43.681H52.523V39.521H46.685V36.264H52.2V32.1H46.685V28.947h5.838V24.788Z"/>
  <path id="Shape_10_copy" data-name="Shape 10 copy" class="cls-2" d="M54.765,96.609c-1.04,1.548-2.06,3.074-3.1,4.588a0.367,0.367,0,0,1-.361.032,22.208,22.208,0,0,1-5.164-5.447A23.178,23.178,0,0,1,42.655,87.2c-0.1-.5-0.155-1.017-0.215-1.528-0.07-.589-0.063-0.589-0.654-0.589-1.065,0-2.13,0-3.195,0H38.037c2.363-4.237,4.681-8.386,7.046-12.621,2.363,4.23,4.678,8.374,7.041,12.606h-4.1a16.985,16.985,0,0,0,6.743,11.546m7.179-25.928V66.457a15.594,15.594,0,0,0-6.287,2.273A16.321,16.321,0,0,0,50.8,73.415c-1.5-1.08-2.974-2.135-4.432-3.207a0.444,0.444,0,0,1-.017-0.411,21.812,21.812,0,0,1,4.072-4.417,21.571,21.571,0,0,1,9.514-4.5c0.529-.105,1.065-0.173,1.6-0.228a0.4,0.4,0,0,0,.413-0.489c-0.015-1.173-.008-2.343-0.005-3.515,0-.15.015-0.3,0.028-0.516l12.178,7.266L61.944,70.681M89.967,80.816C87.6,85.06,85.284,89.2,82.918,93.439c-2.358-4.222-4.673-8.366-7.033-12.6h4.077a16.882,16.882,0,0,0-2.2-6.515A16.51,16.51,0,0,0,73.224,69.3c0.649-.965,1.278-1.9,1.907-2.831,0.381-.561.774-1.113,1.138-1.684,0.158-.253.281-0.238,0.491-0.075a22.464,22.464,0,0,1,8.336,12.9c0.206,0.914.338,1.849,0.476,2.781a0.4,0.4,0,0,0,.474.431c1.1-.017,2.212-0.007,3.32-0.007h0.6m-23.9,28.969c-4.1-2.451-8.111-4.841-12.208-7.287l12.185-7.274v4.215a15.491,15.491,0,0,0,6.3-2.273A16.178,16.178,0,0,0,77.2,92.481c1.391,1,2.749,1.98,4.1,2.964,0.529,0.386.531,0.4,0.15,0.93a21.435,21.435,0,0,1-7.161,6.367,20.585,20.585,0,0,1-7.823,2.506,0.4,0.4,0,0,0-.406.494c0.015,1.157,0,2.315,0,3.472v0.572Zm7.981-66.1h7.266a8.617,8.617,0,0,0,3.646-.777,9.767,9.767,0,0,0,2.957-2.08,9.591,9.591,0,0,0,1.98-3.019,9.271,9.271,0,0,0-.013-7.166,9.627,9.627,0,0,0-1.992-3.007,9.91,9.91,0,0,0-2.957-2.067,8.562,8.562,0,0,0-3.621-.777H74.046V43.681Zm4.911-14.733h1.128a6.017,6.017,0,0,1,2.255.4A4.718,4.718,0,0,1,85.1,32.13a5.815,5.815,0,0,1,.376,2.1,6,6,0,0,1-.363,2.117,4.743,4.743,0,0,1-1.052,1.666,4.9,4.9,0,0,1-1.691,1.1,6.086,6.086,0,0,1-2.28.4H78.957V28.947ZM61.468,37.416h2.906a6.69,6.69,0,0,0,4.874-1.654A6.221,6.221,0,0,0,70.939,31.1a6.221,6.221,0,0,0-1.691-4.66,6.69,6.69,0,0,0-4.874-1.654H56.557V43.681h4.911V37.416Zm0-8.67H63.1q2.706,0,2.706,2.355T63.1,33.458H61.468V28.747Zm-8.945-3.959H41.774V43.681H52.523V39.521H46.685V36.264H52.2V32.1H46.685V28.947h5.838V24.788Z"/>
</svg>
