<svg id="fdes" xmlns="http://www.w3.org/2000/svg" width="128" height="128" viewBox="0 0 128 128">
  <defs>
    <style>
      .cls-1 {
        fill: #29475d;
      }

      .cls-1, .cls-2 {
        fill-rule: evenodd;
      }

      .cls-2 {
        fill: #fff;
      }
    </style>
  </defs>
  <path class="cls-1" d="M64,128.006A64,64,0,1,0,0,64a64,64,0,0,0,64,64"/>
  <path id="Shape_12_copy" data-name="Shape 12 copy" class="cls-2" d="M90.826,86.718l-3.014,3.267Q75.931,80.814,64,71.609L40.194,89.985l-3.017-3.267V86.57q5.093-3.909,10.188-7.815,8-6.164,15.991-12.343c0.2-.155.413-0.3,0.671-0.476Q66.682,67.984,69.3,70q10.569,8.16,21.138,16.314c0.12,0.093.258,0.168,0.386,0.253v0.148ZM81.243,106.3H46.705V105.48c0-5.114.008-10.226-.015-15.34a1.346,1.346,0,0,1,.6-1.19q8.088-6.232,16.144-12.5a0.744,0.744,0,0,1,1.123-.02c5.4,4.227,10.822,8.426,16.224,12.651a1.276,1.276,0,0,1,.5.832c0.027,5.362.017,10.722,0.015,16.084a2.44,2.44,0,0,1-.05.308M96.61,25.79a12.953,12.953,0,0,0-2.932-1.14,11.949,11.949,0,0,0-2.932-.388,7.763,7.763,0,0,0-2.719.451,5.772,5.772,0,0,0-2.055,1.265,5.632,5.632,0,0,0-1.3,1.954,6.664,6.664,0,0,0-.464,2.543,5.348,5.348,0,0,0,.439,2.318A4.468,4.468,0,0,0,85.8,34.309a5.867,5.867,0,0,0,1.629.965q0.913,0.365,1.867.664,0.8,0.274,1.366.5a4.056,4.056,0,0,1,.915.489,1.616,1.616,0,0,1,.5.576,1.708,1.708,0,0,1-.438,1.992,2.54,2.54,0,0,1-1.791.551,5.22,5.22,0,0,1-2.13-.476,8.529,8.529,0,0,1-2.18-1.453l-2.1,3.959a11.369,11.369,0,0,0,6.64,2.13,9.629,9.629,0,0,0,3.094-.463,6.6,6.6,0,0,0,2.305-1.3A5.489,5.489,0,0,0,96.9,40.423a6.8,6.8,0,0,0,.489-2.631,5.3,5.3,0,0,0-1.115-3.5,7.568,7.568,0,0,0-3.52-2.142q-0.6-.2-1.215-0.376a6.842,6.842,0,0,1-1.1-.413,2.594,2.594,0,0,1-.789-0.564,1.175,1.175,0,0,1-.3-0.827,1.406,1.406,0,0,1,.6-1.178,2.517,2.517,0,0,1,1.553-.451,4.282,4.282,0,0,1,1.553.313,6.1,6.1,0,0,1,1.6.965Zm-16.362-1H69.5V43.681H80.248V39.521H74.41V36.264h5.512V32.1H74.41V28.947h5.838V24.788ZM49.3,43.681h7.266a8.616,8.616,0,0,0,3.646-.777,9.766,9.766,0,0,0,2.957-2.08,9.548,9.548,0,0,0,1.98-3.019,9.271,9.271,0,0,0-.013-7.166,9.541,9.541,0,0,0-1.992-3.007,9.91,9.91,0,0,0-2.957-2.067,8.563,8.563,0,0,0-3.621-.777H49.3V43.681Zm4.911-14.733h1.128a6.016,6.016,0,0,1,2.255.4,4.718,4.718,0,0,1,2.756,2.781,5.813,5.813,0,0,1,.376,2.1,5.944,5.944,0,0,1-.363,2.117,4.746,4.746,0,0,1-1.052,1.666,4.854,4.854,0,0,1-1.691,1.1,6.086,6.086,0,0,1-2.28.4H54.214V28.947ZM45.87,24.788H35.046V43.681h4.911V36.264h5.387V32.1H39.957V28.947H45.87V24.788Z"/>
</svg>
