<svg id="iso14021" xmlns="http://www.w3.org/2000/svg" width="128" height="128" viewBox="0 0 128 128">
  <defs>
    <style>
      .cls-1 {
        fill: #41ad49;
      }

      .cls-1, .cls-2 {
        fill-rule: evenodd;
      }

      .cls-2 {
        fill: #fff;
      }
    </style>
  </defs>
  <path class="cls-1" d="M64,128.006A64,64,0,1,0,0,64a64,64,0,0,0,64,64"/>
  <path id="Shape_13_copy" data-name="Shape 13 copy" class="cls-2" d="M63.421,94.948a11.286,11.286,0,0,1-3.069-.8,0.235,0.235,0,0,0-.175,0c-0.521.271-1.037,0.549-1.579,0.839,0.436,0.293.857,0.594,1.293,0.867,0.847,0.531,1.7,1.052,2.556,1.561,0.271,0.16.4,0.115,0.476-.183,0.185-.749.331-1.508,0.5-2.285M64.869,95c0.033,0.882.053,1.734,0.1,2.581,0.028,0.481.083,0.962,0.158,1.436,0.065,0.411.163,0.441,0.5,0.215a3.145,3.145,0,0,0,.4-0.3q1.409-1.338,2.811-2.689c0.278-.268.536-0.554,0.794-0.824-0.5-.321-0.975-0.634-1.458-0.942A0.244,0.244,0,0,0,68,94.46,11.106,11.106,0,0,1,64.869,95m-9.78-16.775c-0.832-1.947.291-3.5,1.8-4.282a6.223,6.223,0,0,1,3.773-.609,0.454,0.454,0,0,0,.521-0.21,4.5,4.5,0,0,1,2.734-1.774,6.106,6.106,0,0,1,5.011.742,3.245,3.245,0,0,1,1.621,2.666,5.306,5.306,0,0,1-.028.536c0.474,0.08.945,0.128,1.4,0.243A4.209,4.209,0,0,1,74.255,77a2.861,2.861,0,0,1,.474,2.9,0.9,0.9,0,0,0-.035.105c0.647,0.14,1.3.243,1.919,0.423a3.918,3.918,0,0,1,1.9,1.2,2.232,2.232,0,0,1-.013,3.1,4.385,4.385,0,0,1-.777.664,9.946,9.946,0,0,1-.922.506c0.09,0.058.175,0.115,0.263,0.168a7.062,7.062,0,0,1,2.789,2.979,4.636,4.636,0,0,1-1.644,6.016,7.758,7.758,0,0,1-4.8,1.258A9.71,9.71,0,0,1,70.9,95.88a0.358,0.358,0,0,0-.3.065q-2.462,2.811-4.906,5.636c-0.03.035-.053,0.075-0.085,0.11a2.651,2.651,0,0,0-.679,1.952c0.04,2.593,0,5.186.03,7.78,0.02,1.526.118,3.052,0.205,4.575a1.24,1.24,0,0,0,.266.619c0.225,0.3.529,0.554,0.737,0.867a6.143,6.143,0,0,1,.591,1.15c0.12,0.306.023,0.388-.313,0.391q-2.236.023-4.473,0.04H61.634a1.5,1.5,0,0,1,.373-1.258,0.464,0.464,0,0,1,.13-0.105,1.493,1.493,0,0,0,.8-1.491c0.03-1.155.1-2.313,0.11-3.468,0.017-1.917.035-3.836-.013-5.753-0.053-2.192-.178-4.382-0.263-6.575a1.641,1.641,0,0,0-.689-1.345c-1.558-1.178-3.1-2.378-4.658-3.558a0.555,0.555,0,0,0-.406-0.045,11.4,11.4,0,0,1-5.713.012,5.7,5.7,0,0,1-2.668-1.471,3.351,3.351,0,0,1-.256-4.488,7.462,7.462,0,0,1,2.506-2.2l0.243-.138c-0.226-.158-0.456-0.293-0.659-0.461a1.573,1.573,0,0,1-.323-2.248,4.294,4.294,0,0,1,1.529-1.305c0.1-.055.193-0.108,0.218-0.123a8.121,8.121,0,0,1-.391-1.4,2.574,2.574,0,0,1,1.067-2.212,5.743,5.743,0,0,1,2.208-1.128l0.306-.088M97.574,63.508h4.911V44.615H94.818v4.159h2.756V63.508Zm-6.84-4.159H84.62l3.132-2.932a10.165,10.165,0,0,0,2.117-2.694,6.3,6.3,0,0,0,.664-2.869,6.581,6.581,0,0,0-.551-2.694,6.453,6.453,0,0,0-1.529-2.142,6.977,6.977,0,0,0-2.318-1.4,8.3,8.3,0,0,0-2.919-.5,7.981,7.981,0,0,0-2.944.526,6.687,6.687,0,0,0-2.318,1.5,6.806,6.806,0,0,0-1.516,2.33,8.03,8.03,0,0,0-.539,3.007h5.362a6.161,6.161,0,0,1-.075-0.8,2.4,2.4,0,0,1,.564-1.629,1.963,1.963,0,0,1,1.566-.651,2.085,2.085,0,0,1,.915.188A2.089,2.089,0,0,1,85.309,49.8a2.578,2.578,0,0,1,.138.827,4.771,4.771,0,0,1-.125.977,6.112,6.112,0,0,1-.639,1.5,18.08,18.08,0,0,1-1.566,2.268q-1.052,1.342-2.907,3.27l-4.686,4.861H90.734V59.349Zm-32.36-1.215a9.547,9.547,0,0,0,1.654,3.157,7.39,7.39,0,0,0,2.531,2.03,7.379,7.379,0,0,0,9.008-2.03,9.764,9.764,0,0,0,1.641-3.157,14.546,14.546,0,0,0,0-8.193A9.623,9.623,0,0,0,71.566,46.8a7.536,7.536,0,0,0-9.008-2.017A7.442,7.442,0,0,0,60.027,46.8a9.411,9.411,0,0,0-1.654,3.145,14.546,14.546,0,0,0,0,8.193m4.5-6.364a6.427,6.427,0,0,1,.639-1.779,3.444,3.444,0,0,1,.99-1.153,2.18,2.18,0,0,1,1.3-.413,2.2,2.2,0,0,1,1.29.413,3.31,3.31,0,0,1,.99,1.153,6.775,6.775,0,0,1,.626,1.779,11.577,11.577,0,0,1,0,4.548,7.01,7.01,0,0,1-.626,1.779,3.29,3.29,0,0,1-.99,1.165,2.2,2.2,0,0,1-1.29.413,2.18,2.18,0,0,1-1.3-.413,3.422,3.422,0,0,1-.99-1.165,6.641,6.641,0,0,1-.639-1.779,11.577,11.577,0,0,1,0-4.548m-9.1-7.154H47.311L40.095,56.467v3.157h9.121v3.884h4.56V59.624h2.28V55.866h-2.28V44.615Zm-8.9,11.25,4.335-7.442v7.442H44.881ZM30.223,63.508h4.911V44.615H27.466v4.159h2.756V63.508Zm38.9-30.581a9.69,9.69,0,0,0,5.45,5.287,12.01,12.01,0,0,0,8.432,0,9.949,9.949,0,0,0,3.32-2.117,9.71,9.71,0,0,0,2.167-3.17,10.286,10.286,0,0,0,0-7.843,9.711,9.711,0,0,0-2.167-3.17A9.951,9.951,0,0,0,83,19.8a12.009,12.009,0,0,0-8.431,0,10,10,0,0,0-5.45,13.129m4.786-6a5.236,5.236,0,0,1,1.153-1.654,5.164,5.164,0,0,1,1.691-1.09,5.564,5.564,0,0,1,4.084,0,5.355,5.355,0,0,1,1.7,1.09,5.231,5.231,0,0,1,1.165,1.654,5.289,5.289,0,0,1,0,4.159,5.232,5.232,0,0,1-1.165,1.654,5.355,5.355,0,0,1-1.7,1.09,5.563,5.563,0,0,1-4.084,0,5.164,5.164,0,0,1-1.691-1.09,5.237,5.237,0,0,1-1.153-1.654,5.289,5.289,0,0,1,0-4.159m-9.071-6.364a12.949,12.949,0,0,0-2.932-1.14,11.949,11.949,0,0,0-2.932-.388,7.763,7.763,0,0,0-2.719.451A5.772,5.772,0,0,0,54.2,20.749,5.632,5.632,0,0,0,52.9,22.7a6.664,6.664,0,0,0-.464,2.543,5.348,5.348,0,0,0,.439,2.318,4.47,4.47,0,0,0,1.153,1.516,5.867,5.867,0,0,0,1.629.965q0.913,0.365,1.867.664,0.8,0.274,1.366.5a4.053,4.053,0,0,1,.915.489,1.616,1.616,0,0,1,.5.576,1.707,1.707,0,0,1-.438,1.992,2.539,2.539,0,0,1-1.791.551,5.22,5.22,0,0,1-2.13-.476,8.531,8.531,0,0,1-2.18-1.453l-2.1,3.959a11.369,11.369,0,0,0,6.64,2.13,9.631,9.631,0,0,0,3.095-.464,6.6,6.6,0,0,0,2.305-1.3,5.489,5.489,0,0,0,1.428-2.017,6.8,6.8,0,0,0,.489-2.631,5.3,5.3,0,0,0-1.115-3.5,7.568,7.568,0,0,0-3.52-2.142c-0.4-.133-0.807-0.258-1.215-0.376a6.855,6.855,0,0,1-1.1-.414,2.592,2.592,0,0,1-.789-0.564,1.174,1.174,0,0,1-.3-0.827,1.406,1.406,0,0,1,.6-1.178,2.518,2.518,0,0,1,1.553-.451,4.284,4.284,0,0,1,1.553.313,6.1,6.1,0,0,1,1.6.965Zm-21.7,17.89h4.911V19.559H43.14V38.451Z"/>
</svg>
