<svg id="pef" xmlns="http://www.w3.org/2000/svg" width="128" height="128" viewBox="0 0 128 128">
  <defs>
    <style>
      .cls-1 {
        fill: #f6883a;
      }

      .cls-1, .cls-2 {
        fill-rule: evenodd;
      }

      .cls-2 {
        fill: #fff;
      }
    </style>
  </defs>
  <path class="cls-1" d="M64,128.006A64,64,0,1,0,0,64a64,64,0,0,0,64,64"/>
  <path id="Shape_11_copy" data-name="Shape 11 copy" class="cls-2" d="M54.7,114.183a35.841,35.841,0,0,1-3.6-1.453,5.864,5.864,0,0,1-3.367-5.7,10.119,10.119,0,0,1,2.561-7,22.282,22.282,0,0,1,3.034-2.421c1.578-1.153,3.355-2.067,4.575-3.651a8.529,8.529,0,0,0,.982-9.574c-0.927-1.9-2.027-3.718-2.959-5.618a7.577,7.577,0,0,1,1.18-8.492A4.5,4.5,0,0,1,60.976,68.9a20.757,20.757,0,0,1,13.784,7.712A10.528,10.528,0,0,1,76.814,86.1a18.594,18.594,0,0,1-4.242,8.153c-1.827,2.095-3.7,4.147-5.482,6.279a21.245,21.245,0,0,0-3.859,6.863,10.856,10.856,0,0,1-3.388,5.274A7.09,7.09,0,0,1,57,114.02c-0.248.06-.494,0.145-0.739,0.218-0.521-.018-1.04-0.038-1.561-0.055M57.52,60.205A6.878,6.878,0,0,1,59.4,55.4c1.659-1.714,3.658-1.4,4.806.7a7.59,7.59,0,0,1-1.674,8.429,2.741,2.741,0,0,1-4.37-.965,6.308,6.308,0,0,1-.641-3.36m13.729,2.139a6.3,6.3,0,0,1-1.17,3.33,2.422,2.422,0,0,1-2.215,1.072,2.053,2.053,0,0,1-1.749-1.689A5.022,5.022,0,0,1,67.34,59.9a2.046,2.046,0,0,1,3.621.96,13.81,13.81,0,0,1,.288,1.486m4.887,3.407a4.572,4.572,0,0,1-1.646,3.24,1.585,1.585,0,0,1-2.641-.852,4.189,4.189,0,0,1,1.386-4.485,1.586,1.586,0,0,1,2.681.807,11.663,11.663,0,0,1,.221,1.29M78.97,69.4a3.1,3.1,0,0,1-1.809,2.666,1.311,1.311,0,0,1-1.942-1.092,3.421,3.421,0,0,1,1.934-3.355A1.3,1.3,0,0,1,78.988,68.8a4.353,4.353,0,0,1-.017.6m-1.545,4.46a2.468,2.468,0,0,1,1.416-1.987,1.018,1.018,0,0,1,1.233.594,2.619,2.619,0,0,1-1.022,3.18,0.962,0.962,0,0,1-1.481-.661,8.812,8.812,0,0,1-.145-1.125M87.84,24.788H77.015V43.681h4.911V36.264h5.387V32.1H81.926V28.947H87.84V24.788Zm-14.858,0H62.232V43.681H72.981V39.521H67.143V36.264h5.513V32.1H67.143V28.947h5.838V24.788ZM49.654,37.416H52.56a6.686,6.686,0,0,0,4.874-1.654A6.221,6.221,0,0,0,59.125,31.1a6.221,6.221,0,0,0-1.691-4.66,6.686,6.686,0,0,0-4.873-1.654H44.743V43.681h4.911V37.416Zm0-8.67h1.629q2.706,0,2.706,2.355t-2.706,2.355H49.654V28.747Z"/>
</svg>
