<svg id="medium_traffic" data-name="medium traffic" xmlns="http://www.w3.org/2000/svg" width="128" height="128" viewBox="0 0 128 128">
  <defs>
    <style>
      .cls-1 {
        fill: #1d1d1d;
      }

      .cls-2 {
        fill: #fff;
        fill-rule: evenodd;
      }
    </style>
  </defs>
  <rect id="Rectangle_1_copy" data-name="Rectangle 1 copy" class="cls-1" width="128" height="128"/>
  <path class="cls-2" d="M31.586,69.1H42.319L47.478,33.83,60.861,69.1h6.783L80.84,32.86,86.51,69.1H97.244L88.23,14.528H76.846L64.205,48.922,51.01,14.528H39.765Z"/>
  <path class="cls-2" d="M93.94,102.233a4.178,4.178,0,0,0-1.448-.271c-3.868,0-6.227,3.712-6.227,7.334,0,3.831,2.264,7.582,6.36,7.582a3.37,3.37,0,0,0,1.315-.252V113.9a3.607,3.607,0,0,1-1.086.213c-2.477,0-3.563-2.67-3.563-4.837,0-2.248,1.086-4.551,3.582-4.551a4.054,4.054,0,0,1,1.067.155v-2.648Zm-12.59,14.49h2.836V102.136H81.349v14.587Zm-8.078-14.587v14.587h2.836v-6.056h2.61v-2.706h-2.61v-3.119H79v-2.706H73.271Zm-8.078,0v14.587h2.836v-6.056h2.61v-2.706h-2.61v-3.119h2.9v-2.706H65.193Zm-5.7,9.85h-2l0.61-3.89,0.3-2.206h0.038l0.324,2.206Zm-2.455-9.85L53.7,116.723h2.82l0.514-2.457h2.874l0.533,2.457h3.029l-3.448-14.587H57.039Zm-10.31,2.377h0.381a1.634,1.634,0,0,1,1.927,1.819c0,1.2-.514,2.09-1.813,2.09l-0.5-.019v-3.89Zm0,12.21v-6.734h0.038l2.5,6.734h2.988l-2.493-6.637a4.077,4.077,0,0,0,2.035-3.773c0-3.983-3.236-4.177-5.049-4.177H43.892v14.587h2.836ZM34.709,102.136v2.706h2.229v11.881h2.836V104.842h2.248v-2.706H34.709Zm49.212-19.35L82.664,97.373h3.048l0.419-10.5h0.038V87.14l0.476,3.251,1.391,6.982h2.188l1.219-6.9,0.457-3.6h0.038l0.686,10.5H95.54L94.035,82.786H90.224L89.081,91.4H89.043l-1.388-8.611H83.921Zm-11.7,0V93.622c0,2.728,1.578,3.983,4.23,3.983,4.093,0,4.265-2.628,4.265-4.176V82.786H77.882V92.848C77.863,93.932,77.863,95,76.472,95c-1.546,0-1.413-1.664-1.413-2.767V82.786H72.223ZM66.869,97.373H69.7V82.786H66.869V97.373Zm-7.834-2.59V85.376c2.347,0,2.918,2.941,2.918,4.8,0,1.819-.629,4.721-2.918,4.605m-0.3,2.59c4.48,0,6.059-3.015,6.059-7.176,0-8.147-5.944-7.411-6.44-7.411H56.2V97.373h2.531ZM48.16,82.786V97.373h5.751V94.667H51V91.374h2.534V88.668H51V85.492h2.877V82.786H48.16Zm-13.641,0L33.261,97.373h3.048l0.419-10.5h0.038V87.14l0.476,3.251,1.391,6.982h2.191l1.219-6.9,0.457-3.6h0.038l0.686,10.5h2.912L44.632,82.786H40.825L39.682,91.4H39.643l-1.391-8.611H34.518Z"/>
</svg>
