<svg id="spessore" xmlns="http://www.w3.org/2000/svg" width="128" height="128" viewBox="0 0 128 128">
  <defs>
    <style>
      .cls-1 {
        fill: #1d1d1d;
      }

      .cls-2 {
        fill: #fff;
        stroke: #fff;
        stroke-width: 1px;
        fill-rule: evenodd;
      }
    </style>
  </defs>
  <rect id="Rectangle_1_copy_5" data-name="Rectangle 1 copy 5" class="cls-1" width="128" height="128"/>
  <path class="cls-2" d="M64,69.456L42.936,96.006h42.13Zm0-10.89L42.936,32.015h42.13ZM101,61H99.789l-5.25,6h2.671L101,62.669v1.519L98.539,67H101v2H29V67h0.211l5.25-6H31.789L29,64.188V62.669L30.461,61H29V59h72v2ZM35.789,61l-5.25,6h2.671l5.25-6H35.789Zm4,0-5.25,6h2.671l5.25-6H39.789Zm4,0-5.25,6h2.671l5.25-6H43.789Zm4,0-5.25,6h2.671l5.25-6H47.789Zm4,0-5.25,6h2.671l5.25-6H51.789Zm4,0-5.25,6h2.671l5.25-6H55.789Zm4,0-5.25,6h2.671l5.25-6H59.789Zm4,0-5.25,6h2.671l5.25-6H63.789Zm4,0-5.25,6h2.671l5.25-6H67.789Zm4,0-5.25,6h2.671l5.25-6H71.789Zm4,0-5.25,6h2.671l5.25-6H75.789Zm4,0-5.25,6h2.671l5.25-6H79.789Zm4,0-5.25,6h2.671l5.25-6H83.789Zm4,0-5.25,6h2.671l5.25-6H87.789Zm4,0-5.25,6h2.671l5.25-6H91.789Zm4,0-5.25,6h2.671l5.25-6H95.789Z"/>
</svg>
