<svg xmlns="http://www.w3.org/2000/svg" width="160.906" height="26" viewBox="0 0 160.906 26">
  <defs>
    <style>
      .cls-1 {
        fill: #4e5256;
      }

      .cls-1, .cls-2, .cls-3, .cls-4 {
        fill-rule: evenodd;
      }

      .cls-2 {
        fill: #e31319;
      }

      .cls-3 {
        fill: #fff;
      }

      .cls-4 {
        fill: #26a232;
      }
    </style>
  </defs>
  <path id="made_in_italy" data-name="made in italy" class="cls-1" d="M561.169,2280l-3.072,7.06-3.109-7.06h-1v8.55h1.116l-0.012-5.83,2.569,5.83h0.852l2.532-5.87v5.87h1.116V2280h-1Zm10.428,8.55h1.26l-3.816-8.55H568l-3.8,8.55h1.26l0.912-2.11h4.32Zm-4.812-3.1,1.74-4.07,1.74,4.07h-3.48Zm8.076,3.1h2.988a4.385,4.385,0,0,0,3.217-1.12,4.247,4.247,0,0,0,1.14-3.17,4.19,4.19,0,0,0-1.14-3.14,4.427,4.427,0,0,0-3.217-1.12h-2.988v8.55Zm1.236-1.03v-6.48h1.68q3.156,0,3.157,3.22,0,3.255-3.157,3.26H576.1Zm8.7,1.03h5.544v-1.01h-4.32v-2.83h4.08v-1.01h-4.08v-2.69h4.32V2280H584.8v8.55Zm12.1,0h1.236V2280h-1.236v8.55Zm9.972-8.55v6.47l-4.908-6.47h-0.936v8.55h1.164v-6.46l4.9,6.46h0.948V2280h-1.164Zm8.161,8.55h1.236V2280h-1.236v8.55Zm6.168,0h1.248v-7.51h2.892V2280H618.3v1.04H621.2v7.51Zm11.688,0h1.26l-3.816-8.55h-1.044l-3.8,8.55h1.26l0.912-2.11h4.32Zm-4.812-3.1,1.74-4.07,1.74,4.07h-3.48Zm8.076,3.1h5.389v-1.03h-4.153V2280h-1.236v8.55Zm12.769-8.55H647.5l-2.6,4.04L642.28,2280h-1.416l3.4,5.09v3.46h1.248v-3.43Z" transform="translate(-488 -2272)"/>
  <path id="Shape_1672_copy_2" data-name="Shape 1672 copy 2" class="cls-2" d="M521.493,2298.01v-26H538v26h-16.5Z" transform="translate(-488 -2272)"/>
  <path id="Shape_1672_copy_3" data-name="Shape 1672 copy 3" class="cls-3" d="M504.5,2298.01v-26h16.991v26H504.5Z" transform="translate(-488 -2272)"/>
  <path id="Shape_1672_copy_4" data-name="Shape 1672 copy 4" class="cls-4" d="M488,2298.01v-26h16.5v26H488Z" transform="translate(-488 -2272)"/>
</svg>
